<?xml version="1.0" encoding="utf-8" standalone="no"?>
<!DOCTYPE svg PUBLIC "-//W3C//DTD SVG 1.1//EN"
  "http://www.w3.org/Graphics/SVG/1.1/DTD/svg11.dtd">
<!-- Created with matplotlib (http://matplotlib.org/) -->
<svg height="1008pt" version="1.1" viewBox="0 0 4320 1008" width="4320pt" xmlns="http://www.w3.org/2000/svg" xmlns:xlink="http://www.w3.org/1999/xlink">
 <defs>
  <style type="text/css">
*{stroke-linecap:butt;stroke-linejoin:round;}
  </style>
 </defs>
 <g id="figure_1">
  <g id="patch_1">
   <path d="M 0 1008 
L 4320 1008 
L 4320 0 
L 0 0 
z
" style="fill:#ffffff;"/>
  </g>
  <g id="axes_1">
   <g id="patch_2">
    <path d="M 540 897.12 
L 3888 897.12 
L 3888 120.96 
L 540 120.96 
z
" style="fill:#ffffff;"/>
   </g>
   <g id="PolyCollection_1">
    <defs>
     <path d="M 692.181818 -555.077082 
L 692.181818 -414.618918 
L 852.373206 -572.514825 
L 1012.564593 -499.982547 
L 1172.755981 -454.769623 
L 1332.947368 -429.06736 
L 1493.138756 -420.198566 
L 1653.330144 -416.732236 
L 1813.521531 -425.66575 
L 1973.712919 -426.126449 
L 2133.904306 -428.88896 
L 2294.095694 -435.534043 
L 2454.287081 -436.423702 
L 2614.478469 -441.002082 
L 2774.669856 -452.4907 
L 2934.861244 -464.633343 
L 3095.052632 -472.467582 
L 3255.244019 -477.644244 
L 3415.435407 -482.027849 
L 3575.626794 -483.976027 
L 3575.626794 -499.656426 
L 3575.626794 -499.656426 
L 3415.435407 -497.717645 
L 3255.244019 -493.436104 
L 3095.052632 -488.467887 
L 2934.861244 -481.186355 
L 2774.669856 -470.342953 
L 2614.478469 -463.950279 
L 2454.287081 -460.316515 
L 2294.095694 -459.017018 
L 2133.904306 -452.7576 
L 1973.712919 -451.764834 
L 1813.521531 -455.476292 
L 1653.330144 -446.283764 
L 1493.138756 -451.956095 
L 1332.947368 -465.290482 
L 1172.755981 -494.760917 
L 1012.564593 -550.375293 
L 852.373206 -651.902775 
L 692.181818 -555.077082 
z
" id="m2306a23b72" style="stroke:#539caf;stroke-opacity:0.4;"/>
    </defs>
    <g clip-path="url(#p4cfb85b3b3)">
     <use style="fill:#539caf;fill-opacity:0.4;stroke:#539caf;stroke-opacity:0.4;" x="0" xlink:href="#m2306a23b72" y="1008"/>
    </g>
   </g>
   <g id="PolyCollection_2">
    <defs>
     <path d="M 692.181818 -575.863438 
L 692.181818 -436.168562 
L 852.373206 -548.125566 
L 1012.564593 -525.080546 
L 1172.755981 -560.61895 
L 1332.947368 -584.398903 
L 1493.138756 -623.338214 
L 1653.330144 -662.61295 
L 1813.521531 -693.521965 
L 1973.712919 -699.991612 
L 2133.904306 -694.688864 
L 2294.095694 -698.366579 
L 2454.287081 -711.821636 
L 2614.478469 -735.988673 
L 2614.478469 -744.270409 
L 2614.478469 -744.270409 
L 2454.287081 -722.048614 
L 2294.095694 -710.63242 
L 2133.904306 -708.241947 
L 1973.712919 -714.896796 
L 1813.521531 -714.864922 
L 1653.330144 -686.292359 
L 1493.138756 -654.186733 
L 1332.947368 -616.324881 
L 1172.755981 -602.173604 
L 1012.564593 -579.232174 
L 852.373206 -611.376834 
L 692.181818 -575.863438 
z
" id="m3b0838d5e9" style="stroke:#b65332;stroke-opacity:0.4;"/>
    </defs>
    <g clip-path="url(#p4cfb85b3b3)">
     <use style="fill:#b65332;fill-opacity:0.4;stroke:#b65332;stroke-opacity:0.4;" x="0" xlink:href="#m3b0838d5e9" y="1008"/>
    </g>
   </g>
   <g id="PolyCollection_3">
    <defs>
     <path d="M 692.181818 -749.38392 
L 692.181818 -643.67208 
L 852.373206 -540.358197 
L 1012.564593 -659.671862 
L 1172.755981 -683.363545 
L 1332.947368 -705.491304 
L 1493.138756 -741.666249 
L 1653.330144 -739.685962 
L 1813.521531 -724.371698 
L 1973.712919 -713.30566 
L 2133.904306 -713.994839 
L 2294.095694 -719.39609 
L 2454.287081 -733.628476 
L 2614.478469 -765.26507 
L 2614.478469 -772.400483 
L 2614.478469 -772.400483 
L 2454.287081 -741.126194 
L 2294.095694 -729.635992 
L 2133.904306 -725.358868 
L 1973.712919 -725.455108 
L 1813.521531 -739.354907 
L 1653.330144 -757.828995 
L 1493.138756 -760.047553 
L 1332.947368 -728.157013 
L 1172.755981 -711.778826 
L 1012.564593 -708.247138 
L 852.373206 -604.679403 
L 692.181818 -749.38392 
z
" id="m5ffae69632" style="stroke:#5be19a;stroke-opacity:0.4;"/>
    </defs>
    <g clip-path="url(#p4cfb85b3b3)">
     <use style="fill:#5be19a;fill-opacity:0.4;stroke:#5be19a;stroke-opacity:0.4;" x="0" xlink:href="#m5ffae69632" y="1008"/>
    </g>
   </g>
   <g id="PolyCollection_4">
    <defs>
     <path d="M 692.181818 -187.393453 
L 692.181818 -119.89382 
L 852.373206 -117.928656 
L 1012.564593 -122.335295 
L 1172.755981 -126.508582 
L 1332.947368 -130.391155 
L 1493.138756 -134.547797 
L 1653.330144 -145.464712 
L 1813.521531 -151.875771 
L 1973.712919 -162.276414 
L 2133.904306 -180.101819 
L 2294.095694 -184.547783 
L 2454.287081 -188.075116 
L 2614.478469 -191.23809 
L 2774.669856 -231.159906 
L 2934.861244 -270.073784 
L 3095.052632 -283.77911 
L 3255.244019 -290.673522 
L 3415.435407 -293.558011 
L 3575.626794 -294.138589 
L 3735.818182 -295.116265 
L 3735.818182 -313.499747 
L 3735.818182 -313.499747 
L 3575.626794 -312.546769 
L 3415.435407 -312.096755 
L 3255.244019 -309.386781 
L 3095.052632 -302.560489 
L 2934.861244 -289.493824 
L 2774.669856 -253.65524 
L 2614.478469 -215.084827 
L 2454.287081 -213.260868 
L 2294.095694 -210.584363 
L 2133.904306 -206.340427 
L 1973.712919 -190.026941 
L 1813.521531 -179.149881 
L 1653.330144 -172.406806 
L 1493.138756 -163.115376 
L 1332.947368 -161.757071 
L 1172.755981 -162.737039 
L 1012.564593 -161.818038 
L 852.373206 -155.504071 
L 692.181818 -187.393453 
z
" id="m0c4e14addc" style="stroke:#ffff80;stroke-opacity:0.4;"/>
    </defs>
    <g clip-path="url(#p4cfb85b3b3)">
     <use style="fill:#ffff80;fill-opacity:0.4;stroke:#ffff80;stroke-opacity:0.4;" x="0" xlink:href="#m0c4e14addc" y="1008"/>
    </g>
   </g>
   <g id="PolyCollection_5">
    <defs>
     <path d="M 692.181818 -420.373423 
L 692.181818 -286.041122 
L 852.373206 -272.010152 
L 1012.564593 -275.810761 
L 1172.755981 -274.258583 
L 1332.947368 -274.450216 
L 1493.138756 -284.048734 
L 1653.330144 -298.007926 
L 1813.521531 -299.563363 
L 1973.712919 -307.395369 
L 2133.904306 -317.914192 
L 2294.095694 -331.218197 
L 2454.287081 -336.208318 
L 2614.478469 -352.907141 
L 2774.669856 -396.03175 
L 2934.861244 -425.569561 
L 3095.052632 -430.381502 
L 3255.244019 -434.793035 
L 3415.435407 -435.334205 
L 3575.626794 -435.173547 
L 3735.818182 -436.068207 
L 3735.818182 -459.702863 
L 3735.818182 -459.702863 
L 3575.626794 -458.807606 
L 3415.435407 -458.953831 
L 3255.244019 -458.464617 
L 3095.052632 -454.756303 
L 2934.861244 -451.55528 
L 2774.669856 -424.062084 
L 2614.478469 -385.675065 
L 2454.287081 -371.316661 
L 2294.095694 -366.417495 
L 2133.904306 -354.427685 
L 1973.712919 -344.383316 
L 1813.521531 -336.979436 
L 1653.330144 -336.40177 
L 1493.138756 -322.917531 
L 1332.947368 -316.338869 
L 1172.755981 -325.818836 
L 1012.564593 -336.488148 
L 852.373206 -353.153485 
L 692.181818 -420.373423 
z
" id="m9a2becd9a2" style="stroke:#87888a;stroke-opacity:0.4;"/>
    </defs>
    <g clip-path="url(#p4cfb85b3b3)">
     <use style="fill:#87888a;fill-opacity:0.4;stroke:#87888a;stroke-opacity:0.4;" x="0" xlink:href="#m9a2becd9a2" y="1008"/>
    </g>
   </g>
   <g id="matplotlib.axis_1">
    <g id="xtick_1">
     <g id="line2d_1">
      <defs>
       <path d="M 0 0 
L 0 3.5 
" id="ma98b5be98f" style="stroke:#000000;stroke-width:0.8;"/>
      </defs>
      <g>
       <use style="stroke:#000000;stroke-width:0.8;" x="692.181818" xlink:href="#ma98b5be98f" y="897.12"/>
      </g>
     </g>
     <g id="text_1">
      <!-- 1 -->
      <defs>
       <path d="M 12.40625 8.296875 
L 28.515625 8.296875 
L 28.515625 63.921875 
L 10.984375 60.40625 
L 10.984375 69.390625 
L 28.421875 72.90625 
L 38.28125 72.90625 
L 38.28125 8.296875 
L 54.390625 8.296875 
L 54.390625 0 
L 12.40625 0 
z
" id="DejaVuSans-31"/>
      </defs>
      <g transform="translate(684.228693 923.116094)scale(0.25 -0.25)">
       <use xlink:href="#DejaVuSans-31"/>
      </g>
     </g>
    </g>
    <g id="xtick_2">
     <g id="line2d_2">
      <g>
       <use style="stroke:#000000;stroke-width:0.8;" x="852.373206" xlink:href="#ma98b5be98f" y="897.12"/>
      </g>
     </g>
     <g id="text_2">
      <!-- 2 -->
      <defs>
       <path d="M 19.1875 8.296875 
L 53.609375 8.296875 
L 53.609375 0 
L 7.328125 0 
L 7.328125 8.296875 
Q 12.9375 14.109375 22.625 23.890625 
Q 32.328125 33.6875 34.8125 36.53125 
Q 39.546875 41.84375 41.421875 45.53125 
Q 43.3125 49.21875 43.3125 52.78125 
Q 43.3125 58.59375 39.234375 62.25 
Q 35.15625 65.921875 28.609375 65.921875 
Q 23.96875 65.921875 18.8125 64.3125 
Q 13.671875 62.703125 7.8125 59.421875 
L 7.8125 69.390625 
Q 13.765625 71.78125 18.9375 73 
Q 24.125 74.21875 28.421875 74.21875 
Q 39.75 74.21875 46.484375 68.546875 
Q 53.21875 62.890625 53.21875 53.421875 
Q 53.21875 48.921875 51.53125 44.890625 
Q 49.859375 40.875 45.40625 35.40625 
Q 44.1875 33.984375 37.640625 27.21875 
Q 31.109375 20.453125 19.1875 8.296875 
z
" id="DejaVuSans-32"/>
      </defs>
      <g transform="translate(844.420081 923.116094)scale(0.25 -0.25)">
       <use xlink:href="#DejaVuSans-32"/>
      </g>
     </g>
    </g>
    <g id="xtick_3">
     <g id="line2d_3">
      <g>
       <use style="stroke:#000000;stroke-width:0.8;" x="1012.564593" xlink:href="#ma98b5be98f" y="897.12"/>
      </g>
     </g>
     <g id="text_3">
      <!-- 3 -->
      <defs>
       <path d="M 40.578125 39.3125 
Q 47.65625 37.796875 51.625 33 
Q 55.609375 28.21875 55.609375 21.1875 
Q 55.609375 10.40625 48.1875 4.484375 
Q 40.765625 -1.421875 27.09375 -1.421875 
Q 22.515625 -1.421875 17.65625 -0.515625 
Q 12.796875 0.390625 7.625 2.203125 
L 7.625 11.71875 
Q 11.71875 9.328125 16.59375 8.109375 
Q 21.484375 6.890625 26.8125 6.890625 
Q 36.078125 6.890625 40.9375 10.546875 
Q 45.796875 14.203125 45.796875 21.1875 
Q 45.796875 27.640625 41.28125 31.265625 
Q 36.765625 34.90625 28.71875 34.90625 
L 20.21875 34.90625 
L 20.21875 43.015625 
L 29.109375 43.015625 
Q 36.375 43.015625 40.234375 45.921875 
Q 44.09375 48.828125 44.09375 54.296875 
Q 44.09375 59.90625 40.109375 62.90625 
Q 36.140625 65.921875 28.71875 65.921875 
Q 24.65625 65.921875 20.015625 65.03125 
Q 15.375 64.15625 9.8125 62.3125 
L 9.8125 71.09375 
Q 15.4375 72.65625 20.34375 73.4375 
Q 25.25 74.21875 29.59375 74.21875 
Q 40.828125 74.21875 47.359375 69.109375 
Q 53.90625 64.015625 53.90625 55.328125 
Q 53.90625 49.265625 50.4375 45.09375 
Q 46.96875 40.921875 40.578125 39.3125 
z
" id="DejaVuSans-33"/>
      </defs>
      <g transform="translate(1004.611468 923.116094)scale(0.25 -0.25)">
       <use xlink:href="#DejaVuSans-33"/>
      </g>
     </g>
    </g>
    <g id="xtick_4">
     <g id="line2d_4">
      <g>
       <use style="stroke:#000000;stroke-width:0.8;" x="1172.755981" xlink:href="#ma98b5be98f" y="897.12"/>
      </g>
     </g>
     <g id="text_4">
      <!-- 4 -->
      <defs>
       <path d="M 37.796875 64.3125 
L 12.890625 25.390625 
L 37.796875 25.390625 
z
M 35.203125 72.90625 
L 47.609375 72.90625 
L 47.609375 25.390625 
L 58.015625 25.390625 
L 58.015625 17.1875 
L 47.609375 17.1875 
L 47.609375 0 
L 37.796875 0 
L 37.796875 17.1875 
L 4.890625 17.1875 
L 4.890625 26.703125 
z
" id="DejaVuSans-34"/>
      </defs>
      <g transform="translate(1164.802856 923.116094)scale(0.25 -0.25)">
       <use xlink:href="#DejaVuSans-34"/>
      </g>
     </g>
    </g>
    <g id="xtick_5">
     <g id="line2d_5">
      <g>
       <use style="stroke:#000000;stroke-width:0.8;" x="1332.947368" xlink:href="#ma98b5be98f" y="897.12"/>
      </g>
     </g>
     <g id="text_5">
      <!-- 5 -->
      <defs>
       <path d="M 10.796875 72.90625 
L 49.515625 72.90625 
L 49.515625 64.59375 
L 19.828125 64.59375 
L 19.828125 46.734375 
Q 21.96875 47.46875 24.109375 47.828125 
Q 26.265625 48.1875 28.421875 48.1875 
Q 40.625 48.1875 47.75 41.5 
Q 54.890625 34.8125 54.890625 23.390625 
Q 54.890625 11.625 47.5625 5.09375 
Q 40.234375 -1.421875 26.90625 -1.421875 
Q 22.3125 -1.421875 17.546875 -0.640625 
Q 12.796875 0.140625 7.71875 1.703125 
L 7.71875 11.625 
Q 12.109375 9.234375 16.796875 8.0625 
Q 21.484375 6.890625 26.703125 6.890625 
Q 35.15625 6.890625 40.078125 11.328125 
Q 45.015625 15.765625 45.015625 23.390625 
Q 45.015625 31 40.078125 35.4375 
Q 35.15625 39.890625 26.703125 39.890625 
Q 22.75 39.890625 18.8125 39.015625 
Q 14.890625 38.140625 10.796875 36.28125 
z
" id="DejaVuSans-35"/>
      </defs>
      <g transform="translate(1324.994243 923.116094)scale(0.25 -0.25)">
       <use xlink:href="#DejaVuSans-35"/>
      </g>
     </g>
    </g>
    <g id="xtick_6">
     <g id="line2d_6">
      <g>
       <use style="stroke:#000000;stroke-width:0.8;" x="1493.138756" xlink:href="#ma98b5be98f" y="897.12"/>
      </g>
     </g>
     <g id="text_6">
      <!-- 6 -->
      <defs>
       <path d="M 33.015625 40.375 
Q 26.375 40.375 22.484375 35.828125 
Q 18.609375 31.296875 18.609375 23.390625 
Q 18.609375 15.53125 22.484375 10.953125 
Q 26.375 6.390625 33.015625 6.390625 
Q 39.65625 6.390625 43.53125 10.953125 
Q 47.40625 15.53125 47.40625 23.390625 
Q 47.40625 31.296875 43.53125 35.828125 
Q 39.65625 40.375 33.015625 40.375 
z
M 52.59375 71.296875 
L 52.59375 62.3125 
Q 48.875 64.0625 45.09375 64.984375 
Q 41.3125 65.921875 37.59375 65.921875 
Q 27.828125 65.921875 22.671875 59.328125 
Q 17.53125 52.734375 16.796875 39.40625 
Q 19.671875 43.65625 24.015625 45.921875 
Q 28.375 48.1875 33.59375 48.1875 
Q 44.578125 48.1875 50.953125 41.515625 
Q 57.328125 34.859375 57.328125 23.390625 
Q 57.328125 12.15625 50.6875 5.359375 
Q 44.046875 -1.421875 33.015625 -1.421875 
Q 20.359375 -1.421875 13.671875 8.265625 
Q 6.984375 17.96875 6.984375 36.375 
Q 6.984375 53.65625 15.1875 63.9375 
Q 23.390625 74.21875 37.203125 74.21875 
Q 40.921875 74.21875 44.703125 73.484375 
Q 48.484375 72.75 52.59375 71.296875 
z
" id="DejaVuSans-36"/>
      </defs>
      <g transform="translate(1485.185631 923.116094)scale(0.25 -0.25)">
       <use xlink:href="#DejaVuSans-36"/>
      </g>
     </g>
    </g>
    <g id="xtick_7">
     <g id="line2d_7">
      <g>
       <use style="stroke:#000000;stroke-width:0.8;" x="1653.330144" xlink:href="#ma98b5be98f" y="897.12"/>
      </g>
     </g>
     <g id="text_7">
      <!-- 7 -->
      <defs>
       <path d="M 8.203125 72.90625 
L 55.078125 72.90625 
L 55.078125 68.703125 
L 28.609375 0 
L 18.3125 0 
L 43.21875 64.59375 
L 8.203125 64.59375 
z
" id="DejaVuSans-37"/>
      </defs>
      <g transform="translate(1645.377019 923.116094)scale(0.25 -0.25)">
       <use xlink:href="#DejaVuSans-37"/>
      </g>
     </g>
    </g>
    <g id="xtick_8">
     <g id="line2d_8">
      <g>
       <use style="stroke:#000000;stroke-width:0.8;" x="1813.521531" xlink:href="#ma98b5be98f" y="897.12"/>
      </g>
     </g>
     <g id="text_8">
      <!-- 8 -->
      <defs>
       <path d="M 31.78125 34.625 
Q 24.75 34.625 20.71875 30.859375 
Q 16.703125 27.09375 16.703125 20.515625 
Q 16.703125 13.921875 20.71875 10.15625 
Q 24.75 6.390625 31.78125 6.390625 
Q 38.8125 6.390625 42.859375 10.171875 
Q 46.921875 13.96875 46.921875 20.515625 
Q 46.921875 27.09375 42.890625 30.859375 
Q 38.875 34.625 31.78125 34.625 
z
M 21.921875 38.8125 
Q 15.578125 40.375 12.03125 44.71875 
Q 8.5 49.078125 8.5 55.328125 
Q 8.5 64.0625 14.71875 69.140625 
Q 20.953125 74.21875 31.78125 74.21875 
Q 42.671875 74.21875 48.875 69.140625 
Q 55.078125 64.0625 55.078125 55.328125 
Q 55.078125 49.078125 51.53125 44.71875 
Q 48 40.375 41.703125 38.8125 
Q 48.828125 37.15625 52.796875 32.3125 
Q 56.78125 27.484375 56.78125 20.515625 
Q 56.78125 9.90625 50.3125 4.234375 
Q 43.84375 -1.421875 31.78125 -1.421875 
Q 19.734375 -1.421875 13.25 4.234375 
Q 6.78125 9.90625 6.78125 20.515625 
Q 6.78125 27.484375 10.78125 32.3125 
Q 14.796875 37.15625 21.921875 38.8125 
z
M 18.3125 54.390625 
Q 18.3125 48.734375 21.84375 45.5625 
Q 25.390625 42.390625 31.78125 42.390625 
Q 38.140625 42.390625 41.71875 45.5625 
Q 45.3125 48.734375 45.3125 54.390625 
Q 45.3125 60.0625 41.71875 63.234375 
Q 38.140625 66.40625 31.78125 66.40625 
Q 25.390625 66.40625 21.84375 63.234375 
Q 18.3125 60.0625 18.3125 54.390625 
z
" id="DejaVuSans-38"/>
      </defs>
      <g transform="translate(1805.568406 923.116094)scale(0.25 -0.25)">
       <use xlink:href="#DejaVuSans-38"/>
      </g>
     </g>
    </g>
    <g id="xtick_9">
     <g id="line2d_9">
      <g>
       <use style="stroke:#000000;stroke-width:0.8;" x="1973.712919" xlink:href="#ma98b5be98f" y="897.12"/>
      </g>
     </g>
     <g id="text_9">
      <!-- 9 -->
      <defs>
       <path d="M 10.984375 1.515625 
L 10.984375 10.5 
Q 14.703125 8.734375 18.5 7.8125 
Q 22.3125 6.890625 25.984375 6.890625 
Q 35.75 6.890625 40.890625 13.453125 
Q 46.046875 20.015625 46.78125 33.40625 
Q 43.953125 29.203125 39.59375 26.953125 
Q 35.25 24.703125 29.984375 24.703125 
Q 19.046875 24.703125 12.671875 31.3125 
Q 6.296875 37.9375 6.296875 49.421875 
Q 6.296875 60.640625 12.9375 67.421875 
Q 19.578125 74.21875 30.609375 74.21875 
Q 43.265625 74.21875 49.921875 64.515625 
Q 56.59375 54.828125 56.59375 36.375 
Q 56.59375 19.140625 48.40625 8.859375 
Q 40.234375 -1.421875 26.421875 -1.421875 
Q 22.703125 -1.421875 18.890625 -0.6875 
Q 15.09375 0.046875 10.984375 1.515625 
z
M 30.609375 32.421875 
Q 37.25 32.421875 41.125 36.953125 
Q 45.015625 41.5 45.015625 49.421875 
Q 45.015625 57.28125 41.125 61.84375 
Q 37.25 66.40625 30.609375 66.40625 
Q 23.96875 66.40625 20.09375 61.84375 
Q 16.21875 57.28125 16.21875 49.421875 
Q 16.21875 41.5 20.09375 36.953125 
Q 23.96875 32.421875 30.609375 32.421875 
z
" id="DejaVuSans-39"/>
      </defs>
      <g transform="translate(1965.759794 923.116094)scale(0.25 -0.25)">
       <use xlink:href="#DejaVuSans-39"/>
      </g>
     </g>
    </g>
    <g id="xtick_10">
     <g id="line2d_10">
      <g>
       <use style="stroke:#000000;stroke-width:0.8;" x="2133.904306" xlink:href="#ma98b5be98f" y="897.12"/>
      </g>
     </g>
     <g id="text_10">
      <!-- 10 -->
      <defs>
       <path d="M 31.78125 66.40625 
Q 24.171875 66.40625 20.328125 58.90625 
Q 16.5 51.421875 16.5 36.375 
Q 16.5 21.390625 20.328125 13.890625 
Q 24.171875 6.390625 31.78125 6.390625 
Q 39.453125 6.390625 43.28125 13.890625 
Q 47.125 21.390625 47.125 36.375 
Q 47.125 51.421875 43.28125 58.90625 
Q 39.453125 66.40625 31.78125 66.40625 
z
M 31.78125 74.21875 
Q 44.046875 74.21875 50.515625 64.515625 
Q 56.984375 54.828125 56.984375 36.375 
Q 56.984375 17.96875 50.515625 8.265625 
Q 44.046875 -1.421875 31.78125 -1.421875 
Q 19.53125 -1.421875 13.0625 8.265625 
Q 6.59375 17.96875 6.59375 36.375 
Q 6.59375 54.828125 13.0625 64.515625 
Q 19.53125 74.21875 31.78125 74.21875 
z
" id="DejaVuSans-30"/>
      </defs>
      <g transform="translate(2117.998056 923.116094)scale(0.25 -0.25)">
       <use xlink:href="#DejaVuSans-31"/>
       <use x="63.623047" xlink:href="#DejaVuSans-30"/>
      </g>
     </g>
    </g>
    <g id="xtick_11">
     <g id="line2d_11">
      <g>
       <use style="stroke:#000000;stroke-width:0.8;" x="2294.095694" xlink:href="#ma98b5be98f" y="897.12"/>
      </g>
     </g>
     <g id="text_11">
      <!-- 11 -->
      <g transform="translate(2278.189444 923.116094)scale(0.25 -0.25)">
       <use xlink:href="#DejaVuSans-31"/>
       <use x="63.623047" xlink:href="#DejaVuSans-31"/>
      </g>
     </g>
    </g>
    <g id="xtick_12">
     <g id="line2d_12">
      <g>
       <use style="stroke:#000000;stroke-width:0.8;" x="2454.287081" xlink:href="#ma98b5be98f" y="897.12"/>
      </g>
     </g>
     <g id="text_12">
      <!-- 12 -->
      <g transform="translate(2438.380831 923.116094)scale(0.25 -0.25)">
       <use xlink:href="#DejaVuSans-31"/>
       <use x="63.623047" xlink:href="#DejaVuSans-32"/>
      </g>
     </g>
    </g>
    <g id="xtick_13">
     <g id="line2d_13">
      <g>
       <use style="stroke:#000000;stroke-width:0.8;" x="2614.478469" xlink:href="#ma98b5be98f" y="897.12"/>
      </g>
     </g>
     <g id="text_13">
      <!-- 13 -->
      <g transform="translate(2598.572219 923.116094)scale(0.25 -0.25)">
       <use xlink:href="#DejaVuSans-31"/>
       <use x="63.623047" xlink:href="#DejaVuSans-33"/>
      </g>
     </g>
    </g>
    <g id="xtick_14">
     <g id="line2d_14">
      <g>
       <use style="stroke:#000000;stroke-width:0.8;" x="2774.669856" xlink:href="#ma98b5be98f" y="897.12"/>
      </g>
     </g>
     <g id="text_14">
      <!-- 20 -->
      <g transform="translate(2758.763606 923.116094)scale(0.25 -0.25)">
       <use xlink:href="#DejaVuSans-32"/>
       <use x="63.623047" xlink:href="#DejaVuSans-30"/>
      </g>
     </g>
    </g>
    <g id="xtick_15">
     <g id="line2d_15">
      <g>
       <use style="stroke:#000000;stroke-width:0.8;" x="2934.861244" xlink:href="#ma98b5be98f" y="897.12"/>
      </g>
     </g>
     <g id="text_15">
      <!-- 30 -->
      <g transform="translate(2918.954994 923.116094)scale(0.25 -0.25)">
       <use xlink:href="#DejaVuSans-33"/>
       <use x="63.623047" xlink:href="#DejaVuSans-30"/>
      </g>
     </g>
    </g>
    <g id="xtick_16">
     <g id="line2d_16">
      <g>
       <use style="stroke:#000000;stroke-width:0.8;" x="3095.052632" xlink:href="#ma98b5be98f" y="897.12"/>
      </g>
     </g>
     <g id="text_16">
      <!-- 40 -->
      <g transform="translate(3079.146382 923.116094)scale(0.25 -0.25)">
       <use xlink:href="#DejaVuSans-34"/>
       <use x="63.623047" xlink:href="#DejaVuSans-30"/>
      </g>
     </g>
    </g>
    <g id="xtick_17">
     <g id="line2d_17">
      <g>
       <use style="stroke:#000000;stroke-width:0.8;" x="3255.244019" xlink:href="#ma98b5be98f" y="897.12"/>
      </g>
     </g>
     <g id="text_17">
      <!-- 50 -->
      <g transform="translate(3239.337769 923.116094)scale(0.25 -0.25)">
       <use xlink:href="#DejaVuSans-35"/>
       <use x="63.623047" xlink:href="#DejaVuSans-30"/>
      </g>
     </g>
    </g>
    <g id="xtick_18">
     <g id="line2d_18">
      <g>
       <use style="stroke:#000000;stroke-width:0.8;" x="3415.435407" xlink:href="#ma98b5be98f" y="897.12"/>
      </g>
     </g>
     <g id="text_18">
      <!-- 60 -->
      <g transform="translate(3399.529157 923.116094)scale(0.25 -0.25)">
       <use xlink:href="#DejaVuSans-36"/>
       <use x="63.623047" xlink:href="#DejaVuSans-30"/>
      </g>
     </g>
    </g>
    <g id="xtick_19">
     <g id="line2d_19">
      <g>
       <use style="stroke:#000000;stroke-width:0.8;" x="3575.626794" xlink:href="#ma98b5be98f" y="897.12"/>
      </g>
     </g>
     <g id="text_19">
      <!-- 66 -->
      <g transform="translate(3559.720544 923.116094)scale(0.25 -0.25)">
       <use xlink:href="#DejaVuSans-36"/>
       <use x="63.623047" xlink:href="#DejaVuSans-36"/>
      </g>
     </g>
    </g>
    <g id="xtick_20">
     <g id="line2d_20">
      <g>
       <use style="stroke:#000000;stroke-width:0.8;" x="3735.818182" xlink:href="#ma98b5be98f" y="897.12"/>
      </g>
     </g>
     <g id="text_20">
      <!-- 192 -->
      <g transform="translate(3711.958807 923.116094)scale(0.25 -0.25)">
       <use xlink:href="#DejaVuSans-31"/>
       <use x="63.623047" xlink:href="#DejaVuSans-39"/>
       <use x="127.246094" xlink:href="#DejaVuSans-32"/>
      </g>
     </g>
    </g>
    <g id="text_21">
     <!-- k -->
     <defs>
      <path d="M 9.078125 75.984375 
L 18.109375 75.984375 
L 18.109375 31.109375 
L 44.921875 54.6875 
L 56.390625 54.6875 
L 27.390625 29.109375 
L 57.625 0 
L 45.90625 0 
L 18.109375 26.703125 
L 18.109375 0 
L 9.078125 0 
z
" id="DejaVuSans-6b"/>
     </defs>
     <g transform="translate(2206.761719 951.311406)scale(0.25 -0.25)">
      <use xlink:href="#DejaVuSans-6b"/>
     </g>
    </g>
   </g>
   <g id="matplotlib.axis_2">
    <g id="ytick_1">
     <g id="line2d_21">
      <defs>
       <path d="M 0 0 
L -3.5 0 
" id="m322d7e601b" style="stroke:#000000;stroke-width:0.8;"/>
      </defs>
      <g>
       <use style="stroke:#000000;stroke-width:0.8;" x="540" xlink:href="#m322d7e601b" y="897.12"/>
      </g>
     </g>
     <g id="text_22">
      <!-- 0.0 -->
      <defs>
       <path d="M 10.6875 12.40625 
L 21 12.40625 
L 21 0 
L 10.6875 0 
z
" id="DejaVuSans-2e"/>
      </defs>
      <g transform="translate(493.242188 906.618047)scale(0.25 -0.25)">
       <use xlink:href="#DejaVuSans-30"/>
       <use x="63.623047" xlink:href="#DejaVuSans-2e"/>
       <use x="95.410156" xlink:href="#DejaVuSans-30"/>
      </g>
     </g>
    </g>
    <g id="ytick_2">
     <g id="line2d_22">
      <g>
       <use style="stroke:#000000;stroke-width:0.8;" x="540" xlink:href="#m322d7e601b" y="756"/>
      </g>
     </g>
     <g id="text_23">
      <!-- 0.2 -->
      <g transform="translate(493.242188 765.498047)scale(0.25 -0.25)">
       <use xlink:href="#DejaVuSans-30"/>
       <use x="63.623047" xlink:href="#DejaVuSans-2e"/>
       <use x="95.410156" xlink:href="#DejaVuSans-32"/>
      </g>
     </g>
    </g>
    <g id="ytick_3">
     <g id="line2d_23">
      <g>
       <use style="stroke:#000000;stroke-width:0.8;" x="540" xlink:href="#m322d7e601b" y="614.88"/>
      </g>
     </g>
     <g id="text_24">
      <!-- 0.4 -->
      <g transform="translate(493.242188 624.378047)scale(0.25 -0.25)">
       <use xlink:href="#DejaVuSans-30"/>
       <use x="63.623047" xlink:href="#DejaVuSans-2e"/>
       <use x="95.410156" xlink:href="#DejaVuSans-34"/>
      </g>
     </g>
    </g>
    <g id="ytick_4">
     <g id="line2d_24">
      <g>
       <use style="stroke:#000000;stroke-width:0.8;" x="540" xlink:href="#m322d7e601b" y="473.76"/>
      </g>
     </g>
     <g id="text_25">
      <!-- 0.6 -->
      <g transform="translate(493.242188 483.258047)scale(0.25 -0.25)">
       <use xlink:href="#DejaVuSans-30"/>
       <use x="63.623047" xlink:href="#DejaVuSans-2e"/>
       <use x="95.410156" xlink:href="#DejaVuSans-36"/>
      </g>
     </g>
    </g>
    <g id="ytick_5">
     <g id="line2d_25">
      <g>
       <use style="stroke:#000000;stroke-width:0.8;" x="540" xlink:href="#m322d7e601b" y="332.64"/>
      </g>
     </g>
     <g id="text_26">
      <!-- 0.8 -->
      <g transform="translate(493.242188 342.138047)scale(0.25 -0.25)">
       <use xlink:href="#DejaVuSans-30"/>
       <use x="63.623047" xlink:href="#DejaVuSans-2e"/>
       <use x="95.410156" xlink:href="#DejaVuSans-38"/>
      </g>
     </g>
    </g>
    <g id="ytick_6">
     <g id="line2d_26">
      <g>
       <use style="stroke:#000000;stroke-width:0.8;" x="540" xlink:href="#m322d7e601b" y="191.52"/>
      </g>
     </g>
     <g id="text_27">
      <!-- 1.0 -->
      <g transform="translate(493.242188 201.018047)scale(0.25 -0.25)">
       <use xlink:href="#DejaVuSans-31"/>
       <use x="63.623047" xlink:href="#DejaVuSans-2e"/>
       <use x="95.410156" xlink:href="#DejaVuSans-30"/>
      </g>
     </g>
    </g>
    <g id="text_28">
     <!-- Effectiveness RBO - Missing to Ideal -->
     <defs>
      <path d="M 9.8125 72.90625 
L 55.90625 72.90625 
L 55.90625 64.59375 
L 19.671875 64.59375 
L 19.671875 43.015625 
L 54.390625 43.015625 
L 54.390625 34.71875 
L 19.671875 34.71875 
L 19.671875 8.296875 
L 56.78125 8.296875 
L 56.78125 0 
L 9.8125 0 
z
" id="DejaVuSans-45"/>
      <path d="M 37.109375 75.984375 
L 37.109375 68.5 
L 28.515625 68.5 
Q 23.6875 68.5 21.796875 66.546875 
Q 19.921875 64.59375 19.921875 59.515625 
L 19.921875 54.6875 
L 34.71875 54.6875 
L 34.71875 47.703125 
L 19.921875 47.703125 
L 19.921875 0 
L 10.890625 0 
L 10.890625 47.703125 
L 2.296875 47.703125 
L 2.296875 54.6875 
L 10.890625 54.6875 
L 10.890625 58.5 
Q 10.890625 67.625 15.140625 71.796875 
Q 19.390625 75.984375 28.609375 75.984375 
z
" id="DejaVuSans-66"/>
      <path d="M 56.203125 29.59375 
L 56.203125 25.203125 
L 14.890625 25.203125 
Q 15.484375 15.921875 20.484375 11.0625 
Q 25.484375 6.203125 34.421875 6.203125 
Q 39.59375 6.203125 44.453125 7.46875 
Q 49.3125 8.734375 54.109375 11.28125 
L 54.109375 2.78125 
Q 49.265625 0.734375 44.1875 -0.34375 
Q 39.109375 -1.421875 33.890625 -1.421875 
Q 20.796875 -1.421875 13.15625 6.1875 
Q 5.515625 13.8125 5.515625 26.8125 
Q 5.515625 40.234375 12.765625 48.109375 
Q 20.015625 56 32.328125 56 
Q 43.359375 56 49.78125 48.890625 
Q 56.203125 41.796875 56.203125 29.59375 
z
M 47.21875 32.234375 
Q 47.125 39.59375 43.09375 43.984375 
Q 39.0625 48.390625 32.421875 48.390625 
Q 24.90625 48.390625 20.390625 44.140625 
Q 15.875 39.890625 15.1875 32.171875 
z
" id="DejaVuSans-65"/>
      <path d="M 48.78125 52.59375 
L 48.78125 44.1875 
Q 44.96875 46.296875 41.140625 47.34375 
Q 37.3125 48.390625 33.40625 48.390625 
Q 24.65625 48.390625 19.8125 42.84375 
Q 14.984375 37.3125 14.984375 27.296875 
Q 14.984375 17.28125 19.8125 11.734375 
Q 24.65625 6.203125 33.40625 6.203125 
Q 37.3125 6.203125 41.140625 7.25 
Q 44.96875 8.296875 48.78125 10.40625 
L 48.78125 2.09375 
Q 45.015625 0.34375 40.984375 -0.53125 
Q 36.96875 -1.421875 32.421875 -1.421875 
Q 20.0625 -1.421875 12.78125 6.34375 
Q 5.515625 14.109375 5.515625 27.296875 
Q 5.515625 40.671875 12.859375 48.328125 
Q 20.21875 56 33.015625 56 
Q 37.15625 56 41.109375 55.140625 
Q 45.0625 54.296875 48.78125 52.59375 
z
" id="DejaVuSans-63"/>
      <path d="M 18.3125 70.21875 
L 18.3125 54.6875 
L 36.8125 54.6875 
L 36.8125 47.703125 
L 18.3125 47.703125 
L 18.3125 18.015625 
Q 18.3125 11.328125 20.140625 9.421875 
Q 21.96875 7.515625 27.59375 7.515625 
L 36.8125 7.515625 
L 36.8125 0 
L 27.59375 0 
Q 17.1875 0 13.234375 3.875 
Q 9.28125 7.765625 9.28125 18.015625 
L 9.28125 47.703125 
L 2.6875 47.703125 
L 2.6875 54.6875 
L 9.28125 54.6875 
L 9.28125 70.21875 
z
" id="DejaVuSans-74"/>
      <path d="M 9.421875 54.6875 
L 18.40625 54.6875 
L 18.40625 0 
L 9.421875 0 
z
M 9.421875 75.984375 
L 18.40625 75.984375 
L 18.40625 64.59375 
L 9.421875 64.59375 
z
" id="DejaVuSans-69"/>
      <path d="M 2.984375 54.6875 
L 12.5 54.6875 
L 29.59375 8.796875 
L 46.6875 54.6875 
L 56.203125 54.6875 
L 35.6875 0 
L 23.484375 0 
z
" id="DejaVuSans-76"/>
      <path d="M 54.890625 33.015625 
L 54.890625 0 
L 45.90625 0 
L 45.90625 32.71875 
Q 45.90625 40.484375 42.875 44.328125 
Q 39.84375 48.1875 33.796875 48.1875 
Q 26.515625 48.1875 22.3125 43.546875 
Q 18.109375 38.921875 18.109375 30.90625 
L 18.109375 0 
L 9.078125 0 
L 9.078125 54.6875 
L 18.109375 54.6875 
L 18.109375 46.1875 
Q 21.34375 51.125 25.703125 53.5625 
Q 30.078125 56 35.796875 56 
Q 45.21875 56 50.046875 50.171875 
Q 54.890625 44.34375 54.890625 33.015625 
z
" id="DejaVuSans-6e"/>
      <path d="M 44.28125 53.078125 
L 44.28125 44.578125 
Q 40.484375 46.53125 36.375 47.5 
Q 32.28125 48.484375 27.875 48.484375 
Q 21.1875 48.484375 17.84375 46.4375 
Q 14.5 44.390625 14.5 40.28125 
Q 14.5 37.15625 16.890625 35.375 
Q 19.28125 33.59375 26.515625 31.984375 
L 29.59375 31.296875 
Q 39.15625 29.25 43.1875 25.515625 
Q 47.21875 21.78125 47.21875 15.09375 
Q 47.21875 7.46875 41.1875 3.015625 
Q 35.15625 -1.421875 24.609375 -1.421875 
Q 20.21875 -1.421875 15.453125 -0.5625 
Q 10.6875 0.296875 5.421875 2 
L 5.421875 11.28125 
Q 10.40625 8.6875 15.234375 7.390625 
Q 20.0625 6.109375 24.8125 6.109375 
Q 31.15625 6.109375 34.5625 8.28125 
Q 37.984375 10.453125 37.984375 14.40625 
Q 37.984375 18.0625 35.515625 20.015625 
Q 33.0625 21.96875 24.703125 23.78125 
L 21.578125 24.515625 
Q 13.234375 26.265625 9.515625 29.90625 
Q 5.8125 33.546875 5.8125 39.890625 
Q 5.8125 47.609375 11.28125 51.796875 
Q 16.75 56 26.8125 56 
Q 31.78125 56 36.171875 55.265625 
Q 40.578125 54.546875 44.28125 53.078125 
z
" id="DejaVuSans-73"/>
      <path id="DejaVuSans-20"/>
      <path d="M 44.390625 34.1875 
Q 47.5625 33.109375 50.5625 29.59375 
Q 53.5625 26.078125 56.59375 19.921875 
L 66.609375 0 
L 56 0 
L 46.6875 18.703125 
Q 43.0625 26.03125 39.671875 28.421875 
Q 36.28125 30.8125 30.421875 30.8125 
L 19.671875 30.8125 
L 19.671875 0 
L 9.8125 0 
L 9.8125 72.90625 
L 32.078125 72.90625 
Q 44.578125 72.90625 50.734375 67.671875 
Q 56.890625 62.453125 56.890625 51.90625 
Q 56.890625 45.015625 53.6875 40.46875 
Q 50.484375 35.9375 44.390625 34.1875 
z
M 19.671875 64.796875 
L 19.671875 38.921875 
L 32.078125 38.921875 
Q 39.203125 38.921875 42.84375 42.21875 
Q 46.484375 45.515625 46.484375 51.90625 
Q 46.484375 58.296875 42.84375 61.546875 
Q 39.203125 64.796875 32.078125 64.796875 
z
" id="DejaVuSans-52"/>
      <path d="M 19.671875 34.8125 
L 19.671875 8.109375 
L 35.5 8.109375 
Q 43.453125 8.109375 47.28125 11.40625 
Q 51.125 14.703125 51.125 21.484375 
Q 51.125 28.328125 47.28125 31.5625 
Q 43.453125 34.8125 35.5 34.8125 
z
M 19.671875 64.796875 
L 19.671875 42.828125 
L 34.28125 42.828125 
Q 41.5 42.828125 45.03125 45.53125 
Q 48.578125 48.25 48.578125 53.8125 
Q 48.578125 59.328125 45.03125 62.0625 
Q 41.5 64.796875 34.28125 64.796875 
z
M 9.8125 72.90625 
L 35.015625 72.90625 
Q 46.296875 72.90625 52.390625 68.21875 
Q 58.5 63.53125 58.5 54.890625 
Q 58.5 48.1875 55.375 44.234375 
Q 52.25 40.28125 46.1875 39.3125 
Q 53.46875 37.75 57.5 32.78125 
Q 61.53125 27.828125 61.53125 20.40625 
Q 61.53125 10.640625 54.890625 5.3125 
Q 48.25 0 35.984375 0 
L 9.8125 0 
z
" id="DejaVuSans-42"/>
      <path d="M 39.40625 66.21875 
Q 28.65625 66.21875 22.328125 58.203125 
Q 16.015625 50.203125 16.015625 36.375 
Q 16.015625 22.609375 22.328125 14.59375 
Q 28.65625 6.59375 39.40625 6.59375 
Q 50.140625 6.59375 56.421875 14.59375 
Q 62.703125 22.609375 62.703125 36.375 
Q 62.703125 50.203125 56.421875 58.203125 
Q 50.140625 66.21875 39.40625 66.21875 
z
M 39.40625 74.21875 
Q 54.734375 74.21875 63.90625 63.9375 
Q 73.09375 53.65625 73.09375 36.375 
Q 73.09375 19.140625 63.90625 8.859375 
Q 54.734375 -1.421875 39.40625 -1.421875 
Q 24.03125 -1.421875 14.8125 8.828125 
Q 5.609375 19.09375 5.609375 36.375 
Q 5.609375 53.65625 14.8125 63.9375 
Q 24.03125 74.21875 39.40625 74.21875 
z
" id="DejaVuSans-4f"/>
      <path d="M 4.890625 31.390625 
L 31.203125 31.390625 
L 31.203125 23.390625 
L 4.890625 23.390625 
z
" id="DejaVuSans-2d"/>
      <path d="M 9.8125 72.90625 
L 24.515625 72.90625 
L 43.109375 23.296875 
L 61.8125 72.90625 
L 76.515625 72.90625 
L 76.515625 0 
L 66.890625 0 
L 66.890625 64.015625 
L 48.09375 14.015625 
L 38.1875 14.015625 
L 19.390625 64.015625 
L 19.390625 0 
L 9.8125 0 
z
" id="DejaVuSans-4d"/>
      <path d="M 45.40625 27.984375 
Q 45.40625 37.75 41.375 43.109375 
Q 37.359375 48.484375 30.078125 48.484375 
Q 22.859375 48.484375 18.828125 43.109375 
Q 14.796875 37.75 14.796875 27.984375 
Q 14.796875 18.265625 18.828125 12.890625 
Q 22.859375 7.515625 30.078125 7.515625 
Q 37.359375 7.515625 41.375 12.890625 
Q 45.40625 18.265625 45.40625 27.984375 
z
M 54.390625 6.78125 
Q 54.390625 -7.171875 48.1875 -13.984375 
Q 42 -20.796875 29.203125 -20.796875 
Q 24.46875 -20.796875 20.265625 -20.09375 
Q 16.0625 -19.390625 12.109375 -17.921875 
L 12.109375 -9.1875 
Q 16.0625 -11.328125 19.921875 -12.34375 
Q 23.78125 -13.375 27.78125 -13.375 
Q 36.625 -13.375 41.015625 -8.765625 
Q 45.40625 -4.15625 45.40625 5.171875 
L 45.40625 9.625 
Q 42.625 4.78125 38.28125 2.390625 
Q 33.9375 0 27.875 0 
Q 17.828125 0 11.671875 7.65625 
Q 5.515625 15.328125 5.515625 27.984375 
Q 5.515625 40.671875 11.671875 48.328125 
Q 17.828125 56 27.875 56 
Q 33.9375 56 38.28125 53.609375 
Q 42.625 51.21875 45.40625 46.390625 
L 45.40625 54.6875 
L 54.390625 54.6875 
z
" id="DejaVuSans-67"/>
      <path d="M 30.609375 48.390625 
Q 23.390625 48.390625 19.1875 42.75 
Q 14.984375 37.109375 14.984375 27.296875 
Q 14.984375 17.484375 19.15625 11.84375 
Q 23.34375 6.203125 30.609375 6.203125 
Q 37.796875 6.203125 41.984375 11.859375 
Q 46.1875 17.53125 46.1875 27.296875 
Q 46.1875 37.015625 41.984375 42.703125 
Q 37.796875 48.390625 30.609375 48.390625 
z
M 30.609375 56 
Q 42.328125 56 49.015625 48.375 
Q 55.71875 40.765625 55.71875 27.296875 
Q 55.71875 13.875 49.015625 6.21875 
Q 42.328125 -1.421875 30.609375 -1.421875 
Q 18.84375 -1.421875 12.171875 6.21875 
Q 5.515625 13.875 5.515625 27.296875 
Q 5.515625 40.765625 12.171875 48.375 
Q 18.84375 56 30.609375 56 
z
" id="DejaVuSans-6f"/>
      <path d="M 9.8125 72.90625 
L 19.671875 72.90625 
L 19.671875 0 
L 9.8125 0 
z
" id="DejaVuSans-49"/>
      <path d="M 45.40625 46.390625 
L 45.40625 75.984375 
L 54.390625 75.984375 
L 54.390625 0 
L 45.40625 0 
L 45.40625 8.203125 
Q 42.578125 3.328125 38.25 0.953125 
Q 33.9375 -1.421875 27.875 -1.421875 
Q 17.96875 -1.421875 11.734375 6.484375 
Q 5.515625 14.40625 5.515625 27.296875 
Q 5.515625 40.1875 11.734375 48.09375 
Q 17.96875 56 27.875 56 
Q 33.9375 56 38.25 53.625 
Q 42.578125 51.265625 45.40625 46.390625 
z
M 14.796875 27.296875 
Q 14.796875 17.390625 18.875 11.75 
Q 22.953125 6.109375 30.078125 6.109375 
Q 37.203125 6.109375 41.296875 11.75 
Q 45.40625 17.390625 45.40625 27.296875 
Q 45.40625 37.203125 41.296875 42.84375 
Q 37.203125 48.484375 30.078125 48.484375 
Q 22.953125 48.484375 18.875 42.84375 
Q 14.796875 37.203125 14.796875 27.296875 
z
" id="DejaVuSans-64"/>
      <path d="M 34.28125 27.484375 
Q 23.390625 27.484375 19.1875 25 
Q 14.984375 22.515625 14.984375 16.5 
Q 14.984375 11.71875 18.140625 8.90625 
Q 21.296875 6.109375 26.703125 6.109375 
Q 34.1875 6.109375 38.703125 11.40625 
Q 43.21875 16.703125 43.21875 25.484375 
L 43.21875 27.484375 
z
M 52.203125 31.203125 
L 52.203125 0 
L 43.21875 0 
L 43.21875 8.296875 
Q 40.140625 3.328125 35.546875 0.953125 
Q 30.953125 -1.421875 24.3125 -1.421875 
Q 15.921875 -1.421875 10.953125 3.296875 
Q 6 8.015625 6 15.921875 
Q 6 25.140625 12.171875 29.828125 
Q 18.359375 34.515625 30.609375 34.515625 
L 43.21875 34.515625 
L 43.21875 35.40625 
Q 43.21875 41.609375 39.140625 45 
Q 35.0625 48.390625 27.6875 48.390625 
Q 23 48.390625 18.546875 47.265625 
Q 14.109375 46.140625 10.015625 43.890625 
L 10.015625 52.203125 
Q 14.9375 54.109375 19.578125 55.046875 
Q 24.21875 56 28.609375 56 
Q 40.484375 56 46.34375 49.84375 
Q 52.203125 43.703125 52.203125 31.203125 
z
" id="DejaVuSans-61"/>
      <path d="M 9.421875 75.984375 
L 18.40625 75.984375 
L 18.40625 0 
L 9.421875 0 
z
" id="DejaVuSans-6c"/>
     </defs>
     <g transform="translate(484.042969 733.483359)rotate(-90)scale(0.25 -0.25)">
      <use xlink:href="#DejaVuSans-45"/>
      <use x="63.183594" xlink:href="#DejaVuSans-66"/>
      <use x="98.388672" xlink:href="#DejaVuSans-66"/>
      <use x="133.59375" xlink:href="#DejaVuSans-65"/>
      <use x="195.117188" xlink:href="#DejaVuSans-63"/>
      <use x="250.097656" xlink:href="#DejaVuSans-74"/>
      <use x="289.306641" xlink:href="#DejaVuSans-69"/>
      <use x="317.089844" xlink:href="#DejaVuSans-76"/>
      <use x="376.269531" xlink:href="#DejaVuSans-65"/>
      <use x="437.792969" xlink:href="#DejaVuSans-6e"/>
      <use x="501.171875" xlink:href="#DejaVuSans-65"/>
      <use x="562.695312" xlink:href="#DejaVuSans-73"/>
      <use x="614.794922" xlink:href="#DejaVuSans-73"/>
      <use x="666.894531" xlink:href="#DejaVuSans-20"/>
      <use x="698.681641" xlink:href="#DejaVuSans-52"/>
      <use x="768.164062" xlink:href="#DejaVuSans-42"/>
      <use x="836.751953" xlink:href="#DejaVuSans-4f"/>
      <use x="915.462891" xlink:href="#DejaVuSans-20"/>
      <use x="947.25" xlink:href="#DejaVuSans-2d"/>
      <use x="983.333984" xlink:href="#DejaVuSans-20"/>
      <use x="1015.121094" xlink:href="#DejaVuSans-4d"/>
      <use x="1101.400391" xlink:href="#DejaVuSans-69"/>
      <use x="1129.183594" xlink:href="#DejaVuSans-73"/>
      <use x="1181.283203" xlink:href="#DejaVuSans-73"/>
      <use x="1233.382812" xlink:href="#DejaVuSans-69"/>
      <use x="1261.166016" xlink:href="#DejaVuSans-6e"/>
      <use x="1324.544922" xlink:href="#DejaVuSans-67"/>
      <use x="1388.021484" xlink:href="#DejaVuSans-20"/>
      <use x="1419.808594" xlink:href="#DejaVuSans-74"/>
      <use x="1459.017578" xlink:href="#DejaVuSans-6f"/>
      <use x="1520.199219" xlink:href="#DejaVuSans-20"/>
      <use x="1551.986328" xlink:href="#DejaVuSans-49"/>
      <use x="1581.478516" xlink:href="#DejaVuSans-64"/>
      <use x="1644.955078" xlink:href="#DejaVuSans-65"/>
      <use x="1706.478516" xlink:href="#DejaVuSans-61"/>
      <use x="1767.757812" xlink:href="#DejaVuSans-6c"/>
     </g>
    </g>
   </g>
   <g id="line2d_27">
    <path clip-path="url(#p4cfb85b3b3)" d="M 692.181818 523.152 
L 852.373206 395.7912 
L 1012.564593 482.82108 
L 1172.755981 533.23473 
L 1332.947368 560.821079 
L 1493.138756 571.922669 
L 1653.330144 576.492 
L 1813.521531 567.428979 
L 1973.712919 569.054359 
L 2133.904306 567.17672 
L 2294.095694 560.724469 
L 2454.287081 559.629891 
L 2614.478469 555.52382 
L 2774.669856 546.583173 
L 2934.861244 535.090151 
L 3095.052632 527.532265 
L 3255.244019 522.459826 
L 3415.435407 518.127253 
L 3575.626794 516.183774 
" style="fill:none;stroke:#539caf;stroke-dasharray:12.8,3.2,2,3.2;stroke-dashoffset:0;stroke-width:2;"/>
    <defs>
     <path d="M -6 6 
L 6 -6 
M -6 -6 
L 6 6 
" id="m1d298f3f72" style="stroke:#539caf;"/>
    </defs>
    <g clip-path="url(#p4cfb85b3b3)">
     <use style="fill:#539caf;stroke:#539caf;" x="692.181818" xlink:href="#m1d298f3f72" y="523.152"/>
     <use style="fill:#539caf;stroke:#539caf;" x="852.373206" xlink:href="#m1d298f3f72" y="395.7912"/>
     <use style="fill:#539caf;stroke:#539caf;" x="1012.564593" xlink:href="#m1d298f3f72" y="482.82108"/>
     <use style="fill:#539caf;stroke:#539caf;" x="1172.755981" xlink:href="#m1d298f3f72" y="533.23473"/>
     <use style="fill:#539caf;stroke:#539caf;" x="1332.947368" xlink:href="#m1d298f3f72" y="560.821079"/>
     <use style="fill:#539caf;stroke:#539caf;" x="1493.138756" xlink:href="#m1d298f3f72" y="571.922669"/>
     <use style="fill:#539caf;stroke:#539caf;" x="1653.330144" xlink:href="#m1d298f3f72" y="576.492"/>
     <use style="fill:#539caf;stroke:#539caf;" x="1813.521531" xlink:href="#m1d298f3f72" y="567.428979"/>
     <use style="fill:#539caf;stroke:#539caf;" x="1973.712919" xlink:href="#m1d298f3f72" y="569.054359"/>
     <use style="fill:#539caf;stroke:#539caf;" x="2133.904306" xlink:href="#m1d298f3f72" y="567.17672"/>
     <use style="fill:#539caf;stroke:#539caf;" x="2294.095694" xlink:href="#m1d298f3f72" y="560.724469"/>
     <use style="fill:#539caf;stroke:#539caf;" x="2454.287081" xlink:href="#m1d298f3f72" y="559.629891"/>
     <use style="fill:#539caf;stroke:#539caf;" x="2614.478469" xlink:href="#m1d298f3f72" y="555.52382"/>
     <use style="fill:#539caf;stroke:#539caf;" x="2774.669856" xlink:href="#m1d298f3f72" y="546.583173"/>
     <use style="fill:#539caf;stroke:#539caf;" x="2934.861244" xlink:href="#m1d298f3f72" y="535.090151"/>
     <use style="fill:#539caf;stroke:#539caf;" x="3095.052632" xlink:href="#m1d298f3f72" y="527.532265"/>
     <use style="fill:#539caf;stroke:#539caf;" x="3255.244019" xlink:href="#m1d298f3f72" y="522.459826"/>
     <use style="fill:#539caf;stroke:#539caf;" x="3415.435407" xlink:href="#m1d298f3f72" y="518.127253"/>
     <use style="fill:#539caf;stroke:#539caf;" x="3575.626794" xlink:href="#m1d298f3f72" y="516.183774"/>
    </g>
   </g>
   <g id="line2d_28">
    <path clip-path="url(#p4cfb85b3b3)" d="M 692.181818 501.984 
L 852.373206 428.2488 
L 1012.564593 455.84364 
L 1172.755981 426.603723 
L 1332.947368 407.638108 
L 1493.138756 369.237527 
L 1653.330144 333.547345 
L 1813.521531 303.806556 
L 1973.712919 300.555796 
L 2133.904306 306.534594 
L 2294.095694 303.5005 
L 2454.287081 291.064875 
L 2614.478469 267.870459 
" style="fill:none;stroke:#b65332;stroke-linecap:square;stroke-width:2;"/>
    <defs>
     <path d="M -6 -0 
L 6 6 
L 6 -6 
z
" id="mb921f5606d" style="stroke:#b65332;stroke-linejoin:miter;"/>
    </defs>
    <g clip-path="url(#p4cfb85b3b3)">
     <use style="fill:#b65332;stroke:#b65332;stroke-linejoin:miter;" x="692.181818" xlink:href="#mb921f5606d" y="501.984"/>
     <use style="fill:#b65332;stroke:#b65332;stroke-linejoin:miter;" x="852.373206" xlink:href="#mb921f5606d" y="428.2488"/>
     <use style="fill:#b65332;stroke:#b65332;stroke-linejoin:miter;" x="1012.564593" xlink:href="#mb921f5606d" y="455.84364"/>
     <use style="fill:#b65332;stroke:#b65332;stroke-linejoin:miter;" x="1172.755981" xlink:href="#mb921f5606d" y="426.603723"/>
     <use style="fill:#b65332;stroke:#b65332;stroke-linejoin:miter;" x="1332.947368" xlink:href="#mb921f5606d" y="407.638108"/>
     <use style="fill:#b65332;stroke:#b65332;stroke-linejoin:miter;" x="1493.138756" xlink:href="#mb921f5606d" y="369.237527"/>
     <use style="fill:#b65332;stroke:#b65332;stroke-linejoin:miter;" x="1653.330144" xlink:href="#mb921f5606d" y="333.547345"/>
     <use style="fill:#b65332;stroke:#b65332;stroke-linejoin:miter;" x="1813.521531" xlink:href="#mb921f5606d" y="303.806556"/>
     <use style="fill:#b65332;stroke:#b65332;stroke-linejoin:miter;" x="1973.712919" xlink:href="#mb921f5606d" y="300.555796"/>
     <use style="fill:#b65332;stroke:#b65332;stroke-linejoin:miter;" x="2133.904306" xlink:href="#mb921f5606d" y="306.534594"/>
     <use style="fill:#b65332;stroke:#b65332;stroke-linejoin:miter;" x="2294.095694" xlink:href="#mb921f5606d" y="303.5005"/>
     <use style="fill:#b65332;stroke:#b65332;stroke-linejoin:miter;" x="2454.287081" xlink:href="#mb921f5606d" y="291.064875"/>
     <use style="fill:#b65332;stroke:#b65332;stroke-linejoin:miter;" x="2614.478469" xlink:href="#mb921f5606d" y="267.870459"/>
    </g>
   </g>
   <g id="line2d_29">
    <path clip-path="url(#p4cfb85b3b3)" d="M 692.181818 311.472 
L 852.373206 435.4812 
L 1012.564593 324.0405 
L 1172.755981 310.428815 
L 1332.947368 291.175842 
L 1493.138756 257.143099 
L 1653.330144 259.242521 
L 1813.521531 276.136697 
L 1973.712919 288.619616 
L 2133.904306 288.323147 
L 2294.095694 283.483959 
L 2454.287081 270.622665 
L 2614.478469 239.167223 
" style="fill:none;stroke:#5be19a;stroke-linecap:square;stroke-width:2;"/>
    <defs>
     <path d="M 0 6 
C 1.591219 6 3.117479 5.367802 4.242641 4.242641 
C 5.367802 3.117479 6 1.591219 6 0 
C 6 -1.591219 5.367802 -3.117479 4.242641 -4.242641 
C 3.117479 -5.367802 1.591219 -6 0 -6 
C -1.591219 -6 -3.117479 -5.367802 -4.242641 -4.242641 
C -5.367802 -3.117479 -6 -1.591219 -6 0 
C -6 1.591219 -5.367802 3.117479 -4.242641 4.242641 
C -3.117479 5.367802 -1.591219 6 0 6 
z
" id="m67d94a1a0b" style="stroke:#5be19a;"/>
    </defs>
    <g clip-path="url(#p4cfb85b3b3)">
     <use style="fill:#5be19a;stroke:#5be19a;" x="692.181818" xlink:href="#m67d94a1a0b" y="311.472"/>
     <use style="fill:#5be19a;stroke:#5be19a;" x="852.373206" xlink:href="#m67d94a1a0b" y="435.4812"/>
     <use style="fill:#5be19a;stroke:#5be19a;" x="1012.564593" xlink:href="#m67d94a1a0b" y="324.0405"/>
     <use style="fill:#5be19a;stroke:#5be19a;" x="1172.755981" xlink:href="#m67d94a1a0b" y="310.428815"/>
     <use style="fill:#5be19a;stroke:#5be19a;" x="1332.947368" xlink:href="#m67d94a1a0b" y="291.175842"/>
     <use style="fill:#5be19a;stroke:#5be19a;" x="1493.138756" xlink:href="#m67d94a1a0b" y="257.143099"/>
     <use style="fill:#5be19a;stroke:#5be19a;" x="1653.330144" xlink:href="#m67d94a1a0b" y="259.242521"/>
     <use style="fill:#5be19a;stroke:#5be19a;" x="1813.521531" xlink:href="#m67d94a1a0b" y="276.136697"/>
     <use style="fill:#5be19a;stroke:#5be19a;" x="1973.712919" xlink:href="#m67d94a1a0b" y="288.619616"/>
     <use style="fill:#5be19a;stroke:#5be19a;" x="2133.904306" xlink:href="#m67d94a1a0b" y="288.323147"/>
     <use style="fill:#5be19a;stroke:#5be19a;" x="2294.095694" xlink:href="#m67d94a1a0b" y="283.483959"/>
     <use style="fill:#5be19a;stroke:#5be19a;" x="2454.287081" xlink:href="#m67d94a1a0b" y="270.622665"/>
     <use style="fill:#5be19a;stroke:#5be19a;" x="2614.478469" xlink:href="#m67d94a1a0b" y="239.167223"/>
    </g>
   </g>
   <g id="line2d_30">
    <path clip-path="url(#p4cfb85b3b3)" d="M 692.181818 854.356364 
L 852.373206 871.283636 
L 1012.564593 865.923333 
L 1172.755981 863.377189 
L 1332.947368 861.925887 
L 1493.138756 859.168413 
L 1653.330144 849.064241 
L 1813.521531 842.487174 
L 1973.712919 831.848322 
L 2133.904306 814.778877 
L 2294.095694 810.433927 
L 2454.287081 807.332008 
L 2614.478469 804.838542 
L 2774.669856 765.592427 
L 2934.861244 728.216196 
L 3095.052632 714.830201 
L 3255.244019 707.969848 
L 3415.435407 705.172617 
L 3575.626794 704.657321 
L 3735.818182 703.691994 
" style="fill:none;stroke:#ece554;stroke-dasharray:7.4,3.2;stroke-dashoffset:0;stroke-width:2;"/>
    <defs>
     <path d="M -6 6 
L 6 6 
L 6 -6 
L -6 -6 
z
" id="mbae3695b25" style="stroke:#ece554;stroke-linejoin:miter;"/>
    </defs>
    <g clip-path="url(#p4cfb85b3b3)">
     <use style="fill:#ece554;stroke:#ece554;stroke-linejoin:miter;" x="692.181818" xlink:href="#mbae3695b25" y="854.356364"/>
     <use style="fill:#ece554;stroke:#ece554;stroke-linejoin:miter;" x="852.373206" xlink:href="#mbae3695b25" y="871.283636"/>
     <use style="fill:#ece554;stroke:#ece554;stroke-linejoin:miter;" x="1012.564593" xlink:href="#mbae3695b25" y="865.923333"/>
     <use style="fill:#ece554;stroke:#ece554;stroke-linejoin:miter;" x="1172.755981" xlink:href="#mbae3695b25" y="863.377189"/>
     <use style="fill:#ece554;stroke:#ece554;stroke-linejoin:miter;" x="1332.947368" xlink:href="#mbae3695b25" y="861.925887"/>
     <use style="fill:#ece554;stroke:#ece554;stroke-linejoin:miter;" x="1493.138756" xlink:href="#mbae3695b25" y="859.168413"/>
     <use style="fill:#ece554;stroke:#ece554;stroke-linejoin:miter;" x="1653.330144" xlink:href="#mbae3695b25" y="849.064241"/>
     <use style="fill:#ece554;stroke:#ece554;stroke-linejoin:miter;" x="1813.521531" xlink:href="#mbae3695b25" y="842.487174"/>
     <use style="fill:#ece554;stroke:#ece554;stroke-linejoin:miter;" x="1973.712919" xlink:href="#mbae3695b25" y="831.848322"/>
     <use style="fill:#ece554;stroke:#ece554;stroke-linejoin:miter;" x="2133.904306" xlink:href="#mbae3695b25" y="814.778877"/>
     <use style="fill:#ece554;stroke:#ece554;stroke-linejoin:miter;" x="2294.095694" xlink:href="#mbae3695b25" y="810.433927"/>
     <use style="fill:#ece554;stroke:#ece554;stroke-linejoin:miter;" x="2454.287081" xlink:href="#mbae3695b25" y="807.332008"/>
     <use style="fill:#ece554;stroke:#ece554;stroke-linejoin:miter;" x="2614.478469" xlink:href="#mbae3695b25" y="804.838542"/>
     <use style="fill:#ece554;stroke:#ece554;stroke-linejoin:miter;" x="2774.669856" xlink:href="#mbae3695b25" y="765.592427"/>
     <use style="fill:#ece554;stroke:#ece554;stroke-linejoin:miter;" x="2934.861244" xlink:href="#mbae3695b25" y="728.216196"/>
     <use style="fill:#ece554;stroke:#ece554;stroke-linejoin:miter;" x="3095.052632" xlink:href="#mbae3695b25" y="714.830201"/>
     <use style="fill:#ece554;stroke:#ece554;stroke-linejoin:miter;" x="3255.244019" xlink:href="#mbae3695b25" y="707.969848"/>
     <use style="fill:#ece554;stroke:#ece554;stroke-linejoin:miter;" x="3415.435407" xlink:href="#mbae3695b25" y="705.172617"/>
     <use style="fill:#ece554;stroke:#ece554;stroke-linejoin:miter;" x="3575.626794" xlink:href="#mbae3695b25" y="704.657321"/>
     <use style="fill:#ece554;stroke:#ece554;stroke-linejoin:miter;" x="3735.818182" xlink:href="#mbae3695b25" y="703.691994"/>
    </g>
   </g>
   <g id="line2d_31">
    <path clip-path="url(#p4cfb85b3b3)" d="M 692.181818 654.792727 
L 852.373206 695.418182 
L 1012.564593 701.850545 
L 1172.755981 707.961291 
L 1332.947368 712.605457 
L 1493.138756 704.516867 
L 1653.330144 690.795152 
L 1813.521531 689.728601 
L 1973.712919 682.110658 
L 2133.904306 671.829062 
L 2294.095694 659.182154 
L 2454.287081 654.237511 
L 2614.478469 638.708897 
L 2774.669856 597.953083 
L 2934.861244 569.43758 
L 3095.052632 565.431098 
L 3255.244019 561.371174 
L 3415.435407 560.855982 
L 3575.626794 561.009423 
L 3735.818182 560.114465 
" style="fill:none;stroke:#0d0e0f;stroke-dasharray:12.8,3.2,2,3.2;stroke-dashoffset:0;stroke-width:2;"/>
    <defs>
     <path d="M -6 6 
L 6 -6 
M -6 -6 
L 6 6 
" id="m1d3e9ed912" style="stroke:#0d0e0f;"/>
    </defs>
    <g clip-path="url(#p4cfb85b3b3)">
     <use style="fill:#0d0e0f;stroke:#0d0e0f;" x="692.181818" xlink:href="#m1d3e9ed912" y="654.792727"/>
     <use style="fill:#0d0e0f;stroke:#0d0e0f;" x="852.373206" xlink:href="#m1d3e9ed912" y="695.418182"/>
     <use style="fill:#0d0e0f;stroke:#0d0e0f;" x="1012.564593" xlink:href="#m1d3e9ed912" y="701.850545"/>
     <use style="fill:#0d0e0f;stroke:#0d0e0f;" x="1172.755981" xlink:href="#m1d3e9ed912" y="707.961291"/>
     <use style="fill:#0d0e0f;stroke:#0d0e0f;" x="1332.947368" xlink:href="#m1d3e9ed912" y="712.605457"/>
     <use style="fill:#0d0e0f;stroke:#0d0e0f;" x="1493.138756" xlink:href="#m1d3e9ed912" y="704.516867"/>
     <use style="fill:#0d0e0f;stroke:#0d0e0f;" x="1653.330144" xlink:href="#m1d3e9ed912" y="690.795152"/>
     <use style="fill:#0d0e0f;stroke:#0d0e0f;" x="1813.521531" xlink:href="#m1d3e9ed912" y="689.728601"/>
     <use style="fill:#0d0e0f;stroke:#0d0e0f;" x="1973.712919" xlink:href="#m1d3e9ed912" y="682.110658"/>
     <use style="fill:#0d0e0f;stroke:#0d0e0f;" x="2133.904306" xlink:href="#m1d3e9ed912" y="671.829062"/>
     <use style="fill:#0d0e0f;stroke:#0d0e0f;" x="2294.095694" xlink:href="#m1d3e9ed912" y="659.182154"/>
     <use style="fill:#0d0e0f;stroke:#0d0e0f;" x="2454.287081" xlink:href="#m1d3e9ed912" y="654.237511"/>
     <use style="fill:#0d0e0f;stroke:#0d0e0f;" x="2614.478469" xlink:href="#m1d3e9ed912" y="638.708897"/>
     <use style="fill:#0d0e0f;stroke:#0d0e0f;" x="2774.669856" xlink:href="#m1d3e9ed912" y="597.953083"/>
     <use style="fill:#0d0e0f;stroke:#0d0e0f;" x="2934.861244" xlink:href="#m1d3e9ed912" y="569.43758"/>
     <use style="fill:#0d0e0f;stroke:#0d0e0f;" x="3095.052632" xlink:href="#m1d3e9ed912" y="565.431098"/>
     <use style="fill:#0d0e0f;stroke:#0d0e0f;" x="3255.244019" xlink:href="#m1d3e9ed912" y="561.371174"/>
     <use style="fill:#0d0e0f;stroke:#0d0e0f;" x="3415.435407" xlink:href="#m1d3e9ed912" y="560.855982"/>
     <use style="fill:#0d0e0f;stroke:#0d0e0f;" x="3575.626794" xlink:href="#m1d3e9ed912" y="561.009423"/>
     <use style="fill:#0d0e0f;stroke:#0d0e0f;" x="3735.818182" xlink:href="#m1d3e9ed912" y="560.114465"/>
    </g>
   </g>
   <g id="patch_3">
    <path d="M 540 897.12 
L 540 120.96 
" style="fill:none;stroke:#000000;stroke-linecap:square;stroke-linejoin:miter;stroke-width:0.8;"/>
   </g>
   <g id="patch_4">
    <path d="M 540 897.12 
L 3888 897.12 
" style="fill:none;stroke:#000000;stroke-linecap:square;stroke-linejoin:miter;stroke-width:0.8;"/>
   </g>
   <g id="text_29">
    <!-- Impact of k on Effectiveness, 95% CI, 50 % missing -->
    <defs>
     <path d="M 52 44.1875 
Q 55.375 50.25 60.0625 53.125 
Q 64.75 56 71.09375 56 
Q 79.640625 56 84.28125 50.015625 
Q 88.921875 44.046875 88.921875 33.015625 
L 88.921875 0 
L 79.890625 0 
L 79.890625 32.71875 
Q 79.890625 40.578125 77.09375 44.375 
Q 74.3125 48.1875 68.609375 48.1875 
Q 61.625 48.1875 57.5625 43.546875 
Q 53.515625 38.921875 53.515625 30.90625 
L 53.515625 0 
L 44.484375 0 
L 44.484375 32.71875 
Q 44.484375 40.625 41.703125 44.40625 
Q 38.921875 48.1875 33.109375 48.1875 
Q 26.21875 48.1875 22.15625 43.53125 
Q 18.109375 38.875 18.109375 30.90625 
L 18.109375 0 
L 9.078125 0 
L 9.078125 54.6875 
L 18.109375 54.6875 
L 18.109375 46.1875 
Q 21.1875 51.21875 25.484375 53.609375 
Q 29.78125 56 35.6875 56 
Q 41.65625 56 45.828125 52.96875 
Q 50 49.953125 52 44.1875 
z
" id="DejaVuSans-6d"/>
     <path d="M 18.109375 8.203125 
L 18.109375 -20.796875 
L 9.078125 -20.796875 
L 9.078125 54.6875 
L 18.109375 54.6875 
L 18.109375 46.390625 
Q 20.953125 51.265625 25.265625 53.625 
Q 29.59375 56 35.59375 56 
Q 45.5625 56 51.78125 48.09375 
Q 58.015625 40.1875 58.015625 27.296875 
Q 58.015625 14.40625 51.78125 6.484375 
Q 45.5625 -1.421875 35.59375 -1.421875 
Q 29.59375 -1.421875 25.265625 0.953125 
Q 20.953125 3.328125 18.109375 8.203125 
z
M 48.6875 27.296875 
Q 48.6875 37.203125 44.609375 42.84375 
Q 40.53125 48.484375 33.40625 48.484375 
Q 26.265625 48.484375 22.1875 42.84375 
Q 18.109375 37.203125 18.109375 27.296875 
Q 18.109375 17.390625 22.1875 11.75 
Q 26.265625 6.109375 33.40625 6.109375 
Q 40.53125 6.109375 44.609375 11.75 
Q 48.6875 17.390625 48.6875 27.296875 
z
" id="DejaVuSans-70"/>
     <path d="M 11.71875 12.40625 
L 22.015625 12.40625 
L 22.015625 4 
L 14.015625 -11.625 
L 7.71875 -11.625 
L 11.71875 4 
z
" id="DejaVuSans-2c"/>
     <path d="M 72.703125 32.078125 
Q 68.453125 32.078125 66.03125 28.46875 
Q 63.625 24.859375 63.625 18.40625 
Q 63.625 12.0625 66.03125 8.421875 
Q 68.453125 4.78125 72.703125 4.78125 
Q 76.859375 4.78125 79.265625 8.421875 
Q 81.6875 12.0625 81.6875 18.40625 
Q 81.6875 24.8125 79.265625 28.4375 
Q 76.859375 32.078125 72.703125 32.078125 
z
M 72.703125 38.28125 
Q 80.421875 38.28125 84.953125 32.90625 
Q 89.5 27.546875 89.5 18.40625 
Q 89.5 9.28125 84.9375 3.921875 
Q 80.375 -1.421875 72.703125 -1.421875 
Q 64.890625 -1.421875 60.34375 3.921875 
Q 55.8125 9.28125 55.8125 18.40625 
Q 55.8125 27.59375 60.375 32.9375 
Q 64.9375 38.28125 72.703125 38.28125 
z
M 22.3125 68.015625 
Q 18.109375 68.015625 15.6875 64.375 
Q 13.28125 60.75 13.28125 54.390625 
Q 13.28125 47.953125 15.671875 44.328125 
Q 18.0625 40.71875 22.3125 40.71875 
Q 26.5625 40.71875 28.96875 44.328125 
Q 31.390625 47.953125 31.390625 54.390625 
Q 31.390625 60.6875 28.953125 64.34375 
Q 26.515625 68.015625 22.3125 68.015625 
z
M 66.40625 74.21875 
L 74.21875 74.21875 
L 28.609375 -1.421875 
L 20.796875 -1.421875 
z
M 22.3125 74.21875 
Q 30.03125 74.21875 34.609375 68.875 
Q 39.203125 63.53125 39.203125 54.390625 
Q 39.203125 45.171875 34.640625 39.84375 
Q 30.078125 34.515625 22.3125 34.515625 
Q 14.546875 34.515625 10.03125 39.859375 
Q 5.515625 45.21875 5.515625 54.390625 
Q 5.515625 63.484375 10.046875 68.84375 
Q 14.59375 74.21875 22.3125 74.21875 
z
" id="DejaVuSans-25"/>
     <path d="M 64.40625 67.28125 
L 64.40625 56.890625 
Q 59.421875 61.53125 53.78125 63.8125 
Q 48.140625 66.109375 41.796875 66.109375 
Q 29.296875 66.109375 22.65625 58.46875 
Q 16.015625 50.828125 16.015625 36.375 
Q 16.015625 21.96875 22.65625 14.328125 
Q 29.296875 6.6875 41.796875 6.6875 
Q 48.140625 6.6875 53.78125 8.984375 
Q 59.421875 11.28125 64.40625 15.921875 
L 64.40625 5.609375 
Q 59.234375 2.09375 53.4375 0.328125 
Q 47.65625 -1.421875 41.21875 -1.421875 
Q 24.65625 -1.421875 15.125 8.703125 
Q 5.609375 18.84375 5.609375 36.375 
Q 5.609375 53.953125 15.125 64.078125 
Q 24.65625 74.21875 41.21875 74.21875 
Q 47.75 74.21875 53.53125 72.484375 
Q 59.328125 70.75 64.40625 67.28125 
z
" id="DejaVuSans-43"/>
    </defs>
    <g transform="translate(1828.635937 114.96)scale(0.3 -0.3)">
     <use xlink:href="#DejaVuSans-49"/>
     <use x="29.492188" xlink:href="#DejaVuSans-6d"/>
     <use x="126.904297" xlink:href="#DejaVuSans-70"/>
     <use x="190.380859" xlink:href="#DejaVuSans-61"/>
     <use x="251.660156" xlink:href="#DejaVuSans-63"/>
     <use x="306.640625" xlink:href="#DejaVuSans-74"/>
     <use x="345.849609" xlink:href="#DejaVuSans-20"/>
     <use x="377.636719" xlink:href="#DejaVuSans-6f"/>
     <use x="438.818359" xlink:href="#DejaVuSans-66"/>
     <use x="474.023438" xlink:href="#DejaVuSans-20"/>
     <use x="505.810547" xlink:href="#DejaVuSans-6b"/>
     <use x="563.720703" xlink:href="#DejaVuSans-20"/>
     <use x="595.507812" xlink:href="#DejaVuSans-6f"/>
     <use x="656.689453" xlink:href="#DejaVuSans-6e"/>
     <use x="720.068359" xlink:href="#DejaVuSans-20"/>
     <use x="751.855469" xlink:href="#DejaVuSans-45"/>
     <use x="815.039062" xlink:href="#DejaVuSans-66"/>
     <use x="850.244141" xlink:href="#DejaVuSans-66"/>
     <use x="885.449219" xlink:href="#DejaVuSans-65"/>
     <use x="946.972656" xlink:href="#DejaVuSans-63"/>
     <use x="1001.953125" xlink:href="#DejaVuSans-74"/>
     <use x="1041.162109" xlink:href="#DejaVuSans-69"/>
     <use x="1068.945312" xlink:href="#DejaVuSans-76"/>
     <use x="1128.125" xlink:href="#DejaVuSans-65"/>
     <use x="1189.648438" xlink:href="#DejaVuSans-6e"/>
     <use x="1253.027344" xlink:href="#DejaVuSans-65"/>
     <use x="1314.550781" xlink:href="#DejaVuSans-73"/>
     <use x="1366.650391" xlink:href="#DejaVuSans-73"/>
     <use x="1418.75" xlink:href="#DejaVuSans-2c"/>
     <use x="1450.537109" xlink:href="#DejaVuSans-20"/>
     <use x="1482.324219" xlink:href="#DejaVuSans-39"/>
     <use x="1545.947266" xlink:href="#DejaVuSans-35"/>
     <use x="1609.570312" xlink:href="#DejaVuSans-25"/>
     <use x="1704.589844" xlink:href="#DejaVuSans-20"/>
     <use x="1736.376953" xlink:href="#DejaVuSans-43"/>
     <use x="1806.201172" xlink:href="#DejaVuSans-49"/>
     <use x="1835.693359" xlink:href="#DejaVuSans-2c"/>
     <use x="1867.480469" xlink:href="#DejaVuSans-20"/>
     <use x="1899.267578" xlink:href="#DejaVuSans-35"/>
     <use x="1962.890625" xlink:href="#DejaVuSans-30"/>
     <use x="2026.513672" xlink:href="#DejaVuSans-20"/>
     <use x="2058.300781" xlink:href="#DejaVuSans-25"/>
     <use x="2153.320312" xlink:href="#DejaVuSans-20"/>
     <use x="2185.107422" xlink:href="#DejaVuSans-6d"/>
     <use x="2282.519531" xlink:href="#DejaVuSans-69"/>
     <use x="2310.302734" xlink:href="#DejaVuSans-73"/>
     <use x="2362.402344" xlink:href="#DejaVuSans-73"/>
     <use x="2414.501953" xlink:href="#DejaVuSans-69"/>
     <use x="2442.285156" xlink:href="#DejaVuSans-6e"/>
     <use x="2505.664062" xlink:href="#DejaVuSans-67"/>
    </g>
   </g>
   <g id="legend_1">
    <g id="patch_5">
     <path d="M 3510.851562 326.850625 
L 3870.5 326.850625 
Q 3875.5 326.850625 3875.5 321.850625 
L 3875.5 138.46 
Q 3875.5 133.46 3870.5 133.46 
L 3510.851562 133.46 
Q 3505.851562 133.46 3505.851562 138.46 
L 3505.851562 321.850625 
Q 3505.851562 326.850625 3510.851562 326.850625 
z
" style="fill:#ffffff;opacity:0.8;stroke:#cccccc;stroke-linejoin:miter;"/>
    </g>
    <g id="line2d_32">
     <path d="M 3515.851562 153.815469 
L 3565.851562 153.815469 
" style="fill:none;stroke:#539caf;stroke-dasharray:12.8,3.2,2,3.2;stroke-dashoffset:0;stroke-width:2;"/>
    </g>
    <g id="line2d_33">
     <g>
      <use style="fill:#539caf;stroke:#539caf;" x="3540.851562" xlink:href="#m1d298f3f72" y="153.815469"/>
     </g>
    </g>
    <g id="text_30">
     <!-- |Correlation| -->
     <defs>
      <path d="M 21 76.421875 
L 21 -23.578125 
L 12.703125 -23.578125 
L 12.703125 76.421875 
z
" id="DejaVuSans-7c"/>
      <path d="M 41.109375 46.296875 
Q 39.59375 47.171875 37.8125 47.578125 
Q 36.03125 48 33.890625 48 
Q 26.265625 48 22.1875 43.046875 
Q 18.109375 38.09375 18.109375 28.8125 
L 18.109375 0 
L 9.078125 0 
L 9.078125 54.6875 
L 18.109375 54.6875 
L 18.109375 46.1875 
Q 20.953125 51.171875 25.484375 53.578125 
Q 30.03125 56 36.53125 56 
Q 37.453125 56 38.578125 55.875 
Q 39.703125 55.765625 41.0625 55.515625 
z
" id="DejaVuSans-72"/>
     </defs>
     <g transform="translate(3585.851562 162.565469)scale(0.25 -0.25)">
      <use xlink:href="#DejaVuSans-7c"/>
      <use x="33.691406" xlink:href="#DejaVuSans-43"/>
      <use x="103.515625" xlink:href="#DejaVuSans-6f"/>
      <use x="164.697266" xlink:href="#DejaVuSans-72"/>
      <use x="205.794922" xlink:href="#DejaVuSans-72"/>
      <use x="246.876953" xlink:href="#DejaVuSans-65"/>
      <use x="308.400391" xlink:href="#DejaVuSans-6c"/>
      <use x="336.183594" xlink:href="#DejaVuSans-61"/>
      <use x="397.462891" xlink:href="#DejaVuSans-74"/>
      <use x="436.671875" xlink:href="#DejaVuSans-69"/>
      <use x="464.455078" xlink:href="#DejaVuSans-6f"/>
      <use x="525.636719" xlink:href="#DejaVuSans-6e"/>
      <use x="589.015625" xlink:href="#DejaVuSans-7c"/>
     </g>
    </g>
    <g id="line2d_34">
     <path d="M 3515.851562 191.315469 
L 3565.851562 191.315469 
" style="fill:none;stroke:#b65332;stroke-linecap:square;stroke-width:2;"/>
    </g>
    <g id="line2d_35">
     <g>
      <use style="fill:#b65332;stroke:#b65332;stroke-linejoin:miter;" x="3540.851562" xlink:href="#mb921f5606d" y="191.315469"/>
     </g>
    </g>
    <g id="text_31">
     <!-- |Kurtosis| -->
     <defs>
      <path d="M 9.8125 72.90625 
L 19.671875 72.90625 
L 19.671875 42.09375 
L 52.390625 72.90625 
L 65.09375 72.90625 
L 28.90625 38.921875 
L 67.671875 0 
L 54.6875 0 
L 19.671875 35.109375 
L 19.671875 0 
L 9.8125 0 
z
" id="DejaVuSans-4b"/>
      <path d="M 8.5 21.578125 
L 8.5 54.6875 
L 17.484375 54.6875 
L 17.484375 21.921875 
Q 17.484375 14.15625 20.5 10.265625 
Q 23.53125 6.390625 29.59375 6.390625 
Q 36.859375 6.390625 41.078125 11.03125 
Q 45.3125 15.671875 45.3125 23.6875 
L 45.3125 54.6875 
L 54.296875 54.6875 
L 54.296875 0 
L 45.3125 0 
L 45.3125 8.40625 
Q 42.046875 3.421875 37.71875 1 
Q 33.40625 -1.421875 27.6875 -1.421875 
Q 18.265625 -1.421875 13.375 4.4375 
Q 8.5 10.296875 8.5 21.578125 
z
M 31.109375 56 
z
" id="DejaVuSans-75"/>
     </defs>
     <g transform="translate(3585.851562 200.065469)scale(0.25 -0.25)">
      <use xlink:href="#DejaVuSans-7c"/>
      <use x="33.691406" xlink:href="#DejaVuSans-4b"/>
      <use x="99.189453" xlink:href="#DejaVuSans-75"/>
      <use x="162.568359" xlink:href="#DejaVuSans-72"/>
      <use x="203.681641" xlink:href="#DejaVuSans-74"/>
      <use x="242.890625" xlink:href="#DejaVuSans-6f"/>
      <use x="304.072266" xlink:href="#DejaVuSans-73"/>
      <use x="356.171875" xlink:href="#DejaVuSans-69"/>
      <use x="383.955078" xlink:href="#DejaVuSans-73"/>
      <use x="436.054688" xlink:href="#DejaVuSans-7c"/>
     </g>
    </g>
    <g id="line2d_36">
     <path d="M 3515.851562 228.815469 
L 3565.851562 228.815469 
" style="fill:none;stroke:#5be19a;stroke-linecap:square;stroke-width:2;"/>
    </g>
    <g id="line2d_37">
     <g>
      <use style="fill:#5be19a;stroke:#5be19a;" x="3540.851562" xlink:href="#m67d94a1a0b" y="228.815469"/>
     </g>
    </g>
    <g id="text_32">
     <!-- |Skewness| -->
     <defs>
      <path d="M 53.515625 70.515625 
L 53.515625 60.890625 
Q 47.90625 63.578125 42.921875 64.890625 
Q 37.9375 66.21875 33.296875 66.21875 
Q 25.25 66.21875 20.875 63.09375 
Q 16.5 59.96875 16.5 54.203125 
Q 16.5 49.359375 19.40625 46.890625 
Q 22.3125 44.4375 30.421875 42.921875 
L 36.375 41.703125 
Q 47.40625 39.59375 52.65625 34.296875 
Q 57.90625 29 57.90625 20.125 
Q 57.90625 9.515625 50.796875 4.046875 
Q 43.703125 -1.421875 29.984375 -1.421875 
Q 24.8125 -1.421875 18.96875 -0.25 
Q 13.140625 0.921875 6.890625 3.21875 
L 6.890625 13.375 
Q 12.890625 10.015625 18.65625 8.296875 
Q 24.421875 6.59375 29.984375 6.59375 
Q 38.421875 6.59375 43.015625 9.90625 
Q 47.609375 13.234375 47.609375 19.390625 
Q 47.609375 24.75 44.3125 27.78125 
Q 41.015625 30.8125 33.5 32.328125 
L 27.484375 33.5 
Q 16.453125 35.6875 11.515625 40.375 
Q 6.59375 45.0625 6.59375 53.421875 
Q 6.59375 63.09375 13.40625 68.65625 
Q 20.21875 74.21875 32.171875 74.21875 
Q 37.3125 74.21875 42.625 73.28125 
Q 47.953125 72.359375 53.515625 70.515625 
z
" id="DejaVuSans-53"/>
      <path d="M 4.203125 54.6875 
L 13.1875 54.6875 
L 24.421875 12.015625 
L 35.59375 54.6875 
L 46.1875 54.6875 
L 57.421875 12.015625 
L 68.609375 54.6875 
L 77.59375 54.6875 
L 63.28125 0 
L 52.6875 0 
L 40.921875 44.828125 
L 29.109375 0 
L 18.5 0 
z
" id="DejaVuSans-77"/>
     </defs>
     <g transform="translate(3585.851562 237.565469)scale(0.25 -0.25)">
      <use xlink:href="#DejaVuSans-7c"/>
      <use x="33.691406" xlink:href="#DejaVuSans-53"/>
      <use x="97.167969" xlink:href="#DejaVuSans-6b"/>
      <use x="155.03125" xlink:href="#DejaVuSans-65"/>
      <use x="216.554688" xlink:href="#DejaVuSans-77"/>
      <use x="298.341797" xlink:href="#DejaVuSans-6e"/>
      <use x="361.720703" xlink:href="#DejaVuSans-65"/>
      <use x="423.244141" xlink:href="#DejaVuSans-73"/>
      <use x="475.34375" xlink:href="#DejaVuSans-73"/>
      <use x="527.443359" xlink:href="#DejaVuSans-7c"/>
     </g>
    </g>
    <g id="line2d_38">
     <path d="M 3515.851562 266.206094 
L 3565.851562 266.206094 
" style="fill:none;stroke:#ece554;stroke-dasharray:7.4,3.2;stroke-dashoffset:0;stroke-width:2;"/>
    </g>
    <g id="line2d_39">
     <g>
      <use style="fill:#ece554;stroke:#ece554;stroke-linejoin:miter;" x="3540.851562" xlink:href="#mbae3695b25" y="266.206094"/>
     </g>
    </g>
    <g id="text_33">
     <!-- Similarity to reference -->
     <defs>
      <path d="M 32.171875 -5.078125 
Q 28.375 -14.84375 24.75 -17.8125 
Q 21.140625 -20.796875 15.09375 -20.796875 
L 7.90625 -20.796875 
L 7.90625 -13.28125 
L 13.1875 -13.28125 
Q 16.890625 -13.28125 18.9375 -11.515625 
Q 21 -9.765625 23.484375 -3.21875 
L 25.09375 0.875 
L 2.984375 54.6875 
L 12.5 54.6875 
L 29.59375 11.921875 
L 46.6875 54.6875 
L 56.203125 54.6875 
z
" id="DejaVuSans-79"/>
     </defs>
     <g transform="translate(3585.851562 274.956094)scale(0.25 -0.25)">
      <use xlink:href="#DejaVuSans-53"/>
      <use x="63.476562" xlink:href="#DejaVuSans-69"/>
      <use x="91.259766" xlink:href="#DejaVuSans-6d"/>
      <use x="188.671875" xlink:href="#DejaVuSans-69"/>
      <use x="216.455078" xlink:href="#DejaVuSans-6c"/>
      <use x="244.238281" xlink:href="#DejaVuSans-61"/>
      <use x="305.517578" xlink:href="#DejaVuSans-72"/>
      <use x="346.630859" xlink:href="#DejaVuSans-69"/>
      <use x="374.414062" xlink:href="#DejaVuSans-74"/>
      <use x="413.623047" xlink:href="#DejaVuSans-79"/>
      <use x="472.802734" xlink:href="#DejaVuSans-20"/>
      <use x="504.589844" xlink:href="#DejaVuSans-74"/>
      <use x="543.798828" xlink:href="#DejaVuSans-6f"/>
      <use x="604.980469" xlink:href="#DejaVuSans-20"/>
      <use x="636.767578" xlink:href="#DejaVuSans-72"/>
      <use x="677.849609" xlink:href="#DejaVuSans-65"/>
      <use x="739.373047" xlink:href="#DejaVuSans-66"/>
      <use x="774.578125" xlink:href="#DejaVuSans-65"/>
      <use x="836.101562" xlink:href="#DejaVuSans-72"/>
      <use x="877.183594" xlink:href="#DejaVuSans-65"/>
      <use x="938.707031" xlink:href="#DejaVuSans-6e"/>
      <use x="1002.085938" xlink:href="#DejaVuSans-63"/>
      <use x="1057.066406" xlink:href="#DejaVuSans-65"/>
     </g>
    </g>
    <g id="line2d_40">
     <path d="M 3515.851562 302.901406 
L 3565.851562 302.901406 
" style="fill:none;stroke:#0d0e0f;stroke-dasharray:12.8,3.2,2,3.2;stroke-dashoffset:0;stroke-width:2;"/>
    </g>
    <g id="line2d_41">
     <g>
      <use style="fill:#0d0e0f;stroke:#0d0e0f;" x="3540.851562" xlink:href="#m1d3e9ed912" y="302.901406"/>
     </g>
    </g>
    <g id="text_34">
     <!-- Deviation/outstanding -->
     <defs>
      <path d="M 19.671875 64.796875 
L 19.671875 8.109375 
L 31.59375 8.109375 
Q 46.6875 8.109375 53.6875 14.9375 
Q 60.6875 21.78125 60.6875 36.53125 
Q 60.6875 51.171875 53.6875 57.984375 
Q 46.6875 64.796875 31.59375 64.796875 
z
M 9.8125 72.90625 
L 30.078125 72.90625 
Q 51.265625 72.90625 61.171875 64.09375 
Q 71.09375 55.28125 71.09375 36.53125 
Q 71.09375 17.671875 61.125 8.828125 
Q 51.171875 0 30.078125 0 
L 9.8125 0 
z
" id="DejaVuSans-44"/>
      <path d="M 25.390625 72.90625 
L 33.6875 72.90625 
L 8.296875 -9.28125 
L 0 -9.28125 
z
" id="DejaVuSans-2f"/>
     </defs>
     <g transform="translate(3585.851562 311.651406)scale(0.25 -0.25)">
      <use xlink:href="#DejaVuSans-44"/>
      <use x="77.001953" xlink:href="#DejaVuSans-65"/>
      <use x="138.525391" xlink:href="#DejaVuSans-76"/>
      <use x="197.705078" xlink:href="#DejaVuSans-69"/>
      <use x="225.488281" xlink:href="#DejaVuSans-61"/>
      <use x="286.767578" xlink:href="#DejaVuSans-74"/>
      <use x="325.976562" xlink:href="#DejaVuSans-69"/>
      <use x="353.759766" xlink:href="#DejaVuSans-6f"/>
      <use x="414.941406" xlink:href="#DejaVuSans-6e"/>
      <use x="478.320312" xlink:href="#DejaVuSans-2f"/>
      <use x="512.011719" xlink:href="#DejaVuSans-6f"/>
      <use x="573.193359" xlink:href="#DejaVuSans-75"/>
      <use x="636.572266" xlink:href="#DejaVuSans-74"/>
      <use x="675.78125" xlink:href="#DejaVuSans-73"/>
      <use x="727.880859" xlink:href="#DejaVuSans-74"/>
      <use x="767.089844" xlink:href="#DejaVuSans-61"/>
      <use x="828.369141" xlink:href="#DejaVuSans-6e"/>
      <use x="891.748047" xlink:href="#DejaVuSans-64"/>
      <use x="955.224609" xlink:href="#DejaVuSans-69"/>
      <use x="983.007812" xlink:href="#DejaVuSans-6e"/>
      <use x="1046.386719" xlink:href="#DejaVuSans-67"/>
     </g>
    </g>
   </g>
  </g>
 </g>
 <defs>
  <clipPath id="p4cfb85b3b3">
   <rect height="776.16" width="3348" x="540" y="120.96"/>
  </clipPath>
 </defs>
</svg>
