<?xml version="1.0" encoding="utf-8" standalone="no"?>
<!DOCTYPE svg PUBLIC "-//W3C//DTD SVG 1.1//EN"
  "http://www.w3.org/Graphics/SVG/1.1/DTD/svg11.dtd">
<!-- Created with matplotlib (https://matplotlib.org/) -->
<svg height="1008pt" version="1.1" viewBox="0 0 4320 1008" width="4320pt" xmlns="http://www.w3.org/2000/svg" xmlns:xlink="http://www.w3.org/1999/xlink">
 <defs>
  <style type="text/css">
*{stroke-linecap:butt;stroke-linejoin:round;}
  </style>
 </defs>
 <g id="figure_1">
  <g id="patch_1">
   <path d="M 0 1008 
L 4320 1008 
L 4320 0 
L 0 0 
z
" style="fill:#ffffff;"/>
  </g>
  <g id="axes_1">
   <g id="patch_2">
    <path d="M 540 897.12 
L 3888 897.12 
L 3888 120.96 
L 540 120.96 
z
" style="fill:#ffffff;"/>
   </g>
   <g id="PolyCollection_1">
    <defs>
     <path d="M 692.181818 -808.023236 
L 692.181818 -801.764943 
L 852.373206 -804.133156 
L 1012.564593 -806.688083 
L 1172.755981 -807.272522 
L 1332.947368 -807.799209 
L 1493.138756 -808.903584 
L 1653.330144 -809.013364 
L 1813.521531 -809.814322 
L 1973.712919 -809.761786 
L 2133.904306 -809.655985 
L 2294.095694 -810.081821 
L 2454.287081 -810.144488 
L 2614.478469 -810.26518 
L 2774.669856 -809.395842 
L 2934.861244 -808.114669 
L 3095.052632 -804.468454 
L 3255.244019 -795.197794 
L 3415.435407 -793.566749 
L 3575.626794 -794.378213 
L 3575.626794 -796.23699 
L 3575.626794 -796.23699 
L 3415.435407 -795.546167 
L 3255.244019 -797.982811 
L 3095.052632 -807.620875 
L 2934.861244 -810.739826 
L 2774.669856 -811.216713 
L 2614.478469 -811.335806 
L 2454.287081 -811.252806 
L 2294.095694 -811.195092 
L 2133.904306 -810.904693 
L 1973.712919 -811.047155 
L 1813.521531 -811.159819 
L 1653.330144 -810.617252 
L 1493.138756 -810.600069 
L 1332.947368 -809.805399 
L 1172.755981 -809.72422 
L 1012.564593 -809.526467 
L 852.373206 -808.045361 
L 692.181818 -808.023236 
z
" id="me3c4d48493" style="stroke:#539caf;stroke-opacity:0.4;"/>
    </defs>
    <g clip-path="url(#p85f0609fbe)">
     <use style="fill:#539caf;fill-opacity:0.4;stroke:#539caf;stroke-opacity:0.4;" x="0" xlink:href="#me3c4d48493" y="1008"/>
    </g>
   </g>
   <g id="PolyCollection_2">
    <defs>
     <path d="M 692.181818 -809.548998 
L 692.181818 -805.728352 
L 852.373206 -792.45921 
L 1012.564593 -794.071366 
L 1172.755981 -793.013724 
L 1332.947368 -797.058765 
L 1493.138756 -808.100166 
L 1653.330144 -807.994003 
L 1813.521531 -808.319686 
L 1973.712919 -808.786888 
L 2133.904306 -808.898934 
L 2294.095694 -808.971296 
L 2454.287081 -808.998387 
L 2614.478469 -808.998387 
L 2614.478469 -813.071568 
L 2614.478469 -813.071568 
L 2454.287081 -813.071568 
L 2294.095694 -813.059226 
L 2133.904306 -813.02626 
L 1973.712919 -812.975214 
L 1813.521531 -812.630135 
L 1653.330144 -812.452465 
L 1493.138756 -812.679134 
L 1332.947368 -808.718351 
L 1172.755981 -806.221419 
L 1012.564593 -807.712954 
L 852.373206 -808.239218 
L 692.181818 -809.548998 
z
" id="m7238c754d3" style="stroke:#b65332;stroke-opacity:0.4;"/>
    </defs>
    <g clip-path="url(#p85f0609fbe)">
     <use style="fill:#b65332;fill-opacity:0.4;stroke:#b65332;stroke-opacity:0.4;" x="0" xlink:href="#m7238c754d3" y="1008"/>
    </g>
   </g>
   <g id="PolyCollection_3">
    <defs>
     <path d="M 692.181818 -816.48 
L 692.181818 -816.48 
L 852.373206 -816.48 
L 1012.564593 -815.183906 
L 1172.755981 -815.493706 
L 1332.947368 -814.962759 
L 1493.138756 -814.864524 
L 1653.330144 -815.909289 
L 1813.521531 -816.111734 
L 1973.712919 -815.914226 
L 2133.904306 -816.062061 
L 2294.095694 -816.176702 
L 2454.287081 -816.179753 
L 2614.478469 -816.179753 
L 2614.478469 -816.370397 
L 2614.478469 -816.370397 
L 2454.287081 -816.370397 
L 2294.095694 -816.369284 
L 2133.904306 -816.260335 
L 1973.712919 -816.218181 
L 1813.521531 -816.362709 
L 1653.330144 -816.261328 
L 1493.138756 -815.988653 
L 1332.947368 -816.814709 
L 1172.755981 -816.028383 
L 1012.564593 -816.464896 
L 852.373206 -816.48 
L 692.181818 -816.48 
z
" id="m6ac1a1d2dd" style="stroke:#5be19a;stroke-opacity:0.4;"/>
    </defs>
    <g clip-path="url(#p85f0609fbe)">
     <use style="fill:#5be19a;fill-opacity:0.4;stroke:#5be19a;stroke-opacity:0.4;" x="0" xlink:href="#m6ac1a1d2dd" y="1008"/>
    </g>
   </g>
   <g id="PolyCollection_4">
    <defs>
     <path d="M 692.181818 -800.108846 
L 692.181818 -777.913181 
L 852.373206 -770.256261 
L 1012.564593 -769.960647 
L 1172.755981 -769.603629 
L 1332.947368 -770.284265 
L 1493.138756 -770.18938 
L 1653.330144 -769.553175 
L 1813.521531 -771.800607 
L 1973.712919 -773.980522 
L 2133.904306 -775.732838 
L 2294.095694 -777.062279 
L 2454.287081 -778.59256 
L 2614.478469 -779.537615 
L 2774.669856 -784.575051 
L 2934.861244 -789.542925 
L 3095.052632 -794.968944 
L 3255.244019 -799.18892 
L 3415.435407 -801.861642 
L 3575.626794 -803.085311 
L 3735.818182 -809.908586 
L 3735.818182 -810.951164 
L 3735.818182 -810.951164 
L 3575.626794 -804.967134 
L 3415.435407 -804.078993 
L 3255.244019 -801.885105 
L 3095.052632 -798.144568 
L 2934.861244 -793.339116 
L 2774.669856 -789.276346 
L 2614.478469 -785.183601 
L 2454.287081 -784.458898 
L 2294.095694 -783.179402 
L 2133.904306 -782.153555 
L 1973.712919 -780.867675 
L 1813.521531 -779.143837 
L 1653.330144 -777.432049 
L 1493.138756 -778.78274 
L 1332.947368 -780.003785 
L 1172.755981 -780.591607 
L 1012.564593 -783.107039 
L 852.373206 -786.532489 
L 692.181818 -800.108846 
z
" id="mc71b422fc1" style="stroke:#ffff80;stroke-opacity:0.4;"/>
    </defs>
    <g clip-path="url(#p85f0609fbe)">
     <use style="fill:#ffff80;fill-opacity:0.4;stroke:#ffff80;stroke-opacity:0.4;" x="0" xlink:href="#mc71b422fc1" y="1008"/>
    </g>
   </g>
   <g id="PolyCollection_5">
    <defs>
     <path d="M 692.181818 -801.970768 
L 692.181818 -794.536112 
L 852.373206 -793.895049 
L 1012.564593 -797.022422 
L 1172.755981 -797.795866 
L 1332.947368 -799.978778 
L 1493.138756 -801.733496 
L 1653.330144 -802.731547 
L 1813.521531 -803.083899 
L 1973.712919 -803.707272 
L 2133.904306 -803.96376 
L 2294.095694 -804.547465 
L 2454.287081 -804.970143 
L 2614.478469 -805.178338 
L 2774.669856 -807.424854 
L 2934.861244 -809.095479 
L 3095.052632 -809.782161 
L 3255.244019 -809.72981 
L 3415.435407 -805.76777 
L 3575.626794 -805.443141 
L 3735.818182 -812.981087 
L 3735.818182 -813.886849 
L 3735.818182 -813.886849 
L 3575.626794 -809.131054 
L 3415.435407 -809.128839 
L 3255.244019 -811.829038 
L 3095.052632 -811.914019 
L 2934.861244 -811.600173 
L 2774.669856 -810.851315 
L 2614.478469 -809.270772 
L 2454.287081 -809.15681 
L 2294.095694 -808.991491 
L 2133.904306 -808.692608 
L 1973.712919 -808.613749 
L 1813.521531 -808.394215 
L 1653.330144 -808.270724 
L 1493.138756 -807.859539 
L 1332.947368 -806.885052 
L 1172.755981 -805.889816 
L 1012.564593 -805.287456 
L 852.373206 -802.572624 
L 692.181818 -801.970768 
z
" id="m45e8cc6610" style="stroke:#87888a;stroke-opacity:0.4;"/>
    </defs>
    <g clip-path="url(#p85f0609fbe)">
     <use style="fill:#87888a;fill-opacity:0.4;stroke:#87888a;stroke-opacity:0.4;" x="0" xlink:href="#m45e8cc6610" y="1008"/>
    </g>
   </g>
   <g id="matplotlib.axis_1">
    <g id="xtick_1">
     <g id="line2d_1">
      <defs>
       <path d="M 0 0 
L 0 3.5 
" id="maed07f9703" style="stroke:#000000;stroke-width:0.8;"/>
      </defs>
      <g>
       <use style="stroke:#000000;stroke-width:0.8;" x="692.181818" xlink:href="#maed07f9703" y="897.12"/>
      </g>
     </g>
     <g id="text_1">
      <!-- 1 -->
      <defs>
       <path d="M 12.40625 8.296875 
L 28.515625 8.296875 
L 28.515625 63.921875 
L 10.984375 60.40625 
L 10.984375 69.390625 
L 28.421875 72.90625 
L 38.28125 72.90625 
L 38.28125 8.296875 
L 54.390625 8.296875 
L 54.390625 0 
L 12.40625 0 
z
" id="DejaVuSans-49"/>
      </defs>
      <g transform="translate(684.228693 923.116094)scale(0.25 -0.25)">
       <use xlink:href="#DejaVuSans-49"/>
      </g>
     </g>
    </g>
    <g id="xtick_2">
     <g id="line2d_2">
      <g>
       <use style="stroke:#000000;stroke-width:0.8;" x="852.373206" xlink:href="#maed07f9703" y="897.12"/>
      </g>
     </g>
     <g id="text_2">
      <!-- 2 -->
      <defs>
       <path d="M 19.1875 8.296875 
L 53.609375 8.296875 
L 53.609375 0 
L 7.328125 0 
L 7.328125 8.296875 
Q 12.9375 14.109375 22.625 23.890625 
Q 32.328125 33.6875 34.8125 36.53125 
Q 39.546875 41.84375 41.421875 45.53125 
Q 43.3125 49.21875 43.3125 52.78125 
Q 43.3125 58.59375 39.234375 62.25 
Q 35.15625 65.921875 28.609375 65.921875 
Q 23.96875 65.921875 18.8125 64.3125 
Q 13.671875 62.703125 7.8125 59.421875 
L 7.8125 69.390625 
Q 13.765625 71.78125 18.9375 73 
Q 24.125 74.21875 28.421875 74.21875 
Q 39.75 74.21875 46.484375 68.546875 
Q 53.21875 62.890625 53.21875 53.421875 
Q 53.21875 48.921875 51.53125 44.890625 
Q 49.859375 40.875 45.40625 35.40625 
Q 44.1875 33.984375 37.640625 27.21875 
Q 31.109375 20.453125 19.1875 8.296875 
z
" id="DejaVuSans-50"/>
      </defs>
      <g transform="translate(844.420081 923.116094)scale(0.25 -0.25)">
       <use xlink:href="#DejaVuSans-50"/>
      </g>
     </g>
    </g>
    <g id="xtick_3">
     <g id="line2d_3">
      <g>
       <use style="stroke:#000000;stroke-width:0.8;" x="1012.564593" xlink:href="#maed07f9703" y="897.12"/>
      </g>
     </g>
     <g id="text_3">
      <!-- 3 -->
      <defs>
       <path d="M 40.578125 39.3125 
Q 47.65625 37.796875 51.625 33 
Q 55.609375 28.21875 55.609375 21.1875 
Q 55.609375 10.40625 48.1875 4.484375 
Q 40.765625 -1.421875 27.09375 -1.421875 
Q 22.515625 -1.421875 17.65625 -0.515625 
Q 12.796875 0.390625 7.625 2.203125 
L 7.625 11.71875 
Q 11.71875 9.328125 16.59375 8.109375 
Q 21.484375 6.890625 26.8125 6.890625 
Q 36.078125 6.890625 40.9375 10.546875 
Q 45.796875 14.203125 45.796875 21.1875 
Q 45.796875 27.640625 41.28125 31.265625 
Q 36.765625 34.90625 28.71875 34.90625 
L 20.21875 34.90625 
L 20.21875 43.015625 
L 29.109375 43.015625 
Q 36.375 43.015625 40.234375 45.921875 
Q 44.09375 48.828125 44.09375 54.296875 
Q 44.09375 59.90625 40.109375 62.90625 
Q 36.140625 65.921875 28.71875 65.921875 
Q 24.65625 65.921875 20.015625 65.03125 
Q 15.375 64.15625 9.8125 62.3125 
L 9.8125 71.09375 
Q 15.4375 72.65625 20.34375 73.4375 
Q 25.25 74.21875 29.59375 74.21875 
Q 40.828125 74.21875 47.359375 69.109375 
Q 53.90625 64.015625 53.90625 55.328125 
Q 53.90625 49.265625 50.4375 45.09375 
Q 46.96875 40.921875 40.578125 39.3125 
z
" id="DejaVuSans-51"/>
      </defs>
      <g transform="translate(1004.611468 923.116094)scale(0.25 -0.25)">
       <use xlink:href="#DejaVuSans-51"/>
      </g>
     </g>
    </g>
    <g id="xtick_4">
     <g id="line2d_4">
      <g>
       <use style="stroke:#000000;stroke-width:0.8;" x="1172.755981" xlink:href="#maed07f9703" y="897.12"/>
      </g>
     </g>
     <g id="text_4">
      <!-- 4 -->
      <defs>
       <path d="M 37.796875 64.3125 
L 12.890625 25.390625 
L 37.796875 25.390625 
z
M 35.203125 72.90625 
L 47.609375 72.90625 
L 47.609375 25.390625 
L 58.015625 25.390625 
L 58.015625 17.1875 
L 47.609375 17.1875 
L 47.609375 0 
L 37.796875 0 
L 37.796875 17.1875 
L 4.890625 17.1875 
L 4.890625 26.703125 
z
" id="DejaVuSans-52"/>
      </defs>
      <g transform="translate(1164.802856 923.116094)scale(0.25 -0.25)">
       <use xlink:href="#DejaVuSans-52"/>
      </g>
     </g>
    </g>
    <g id="xtick_5">
     <g id="line2d_5">
      <g>
       <use style="stroke:#000000;stroke-width:0.8;" x="1332.947368" xlink:href="#maed07f9703" y="897.12"/>
      </g>
     </g>
     <g id="text_5">
      <!-- 5 -->
      <defs>
       <path d="M 10.796875 72.90625 
L 49.515625 72.90625 
L 49.515625 64.59375 
L 19.828125 64.59375 
L 19.828125 46.734375 
Q 21.96875 47.46875 24.109375 47.828125 
Q 26.265625 48.1875 28.421875 48.1875 
Q 40.625 48.1875 47.75 41.5 
Q 54.890625 34.8125 54.890625 23.390625 
Q 54.890625 11.625 47.5625 5.09375 
Q 40.234375 -1.421875 26.90625 -1.421875 
Q 22.3125 -1.421875 17.546875 -0.640625 
Q 12.796875 0.140625 7.71875 1.703125 
L 7.71875 11.625 
Q 12.109375 9.234375 16.796875 8.0625 
Q 21.484375 6.890625 26.703125 6.890625 
Q 35.15625 6.890625 40.078125 11.328125 
Q 45.015625 15.765625 45.015625 23.390625 
Q 45.015625 31 40.078125 35.4375 
Q 35.15625 39.890625 26.703125 39.890625 
Q 22.75 39.890625 18.8125 39.015625 
Q 14.890625 38.140625 10.796875 36.28125 
z
" id="DejaVuSans-53"/>
      </defs>
      <g transform="translate(1324.994243 923.116094)scale(0.25 -0.25)">
       <use xlink:href="#DejaVuSans-53"/>
      </g>
     </g>
    </g>
    <g id="xtick_6">
     <g id="line2d_6">
      <g>
       <use style="stroke:#000000;stroke-width:0.8;" x="1493.138756" xlink:href="#maed07f9703" y="897.12"/>
      </g>
     </g>
     <g id="text_6">
      <!-- 6 -->
      <defs>
       <path d="M 33.015625 40.375 
Q 26.375 40.375 22.484375 35.828125 
Q 18.609375 31.296875 18.609375 23.390625 
Q 18.609375 15.53125 22.484375 10.953125 
Q 26.375 6.390625 33.015625 6.390625 
Q 39.65625 6.390625 43.53125 10.953125 
Q 47.40625 15.53125 47.40625 23.390625 
Q 47.40625 31.296875 43.53125 35.828125 
Q 39.65625 40.375 33.015625 40.375 
z
M 52.59375 71.296875 
L 52.59375 62.3125 
Q 48.875 64.0625 45.09375 64.984375 
Q 41.3125 65.921875 37.59375 65.921875 
Q 27.828125 65.921875 22.671875 59.328125 
Q 17.53125 52.734375 16.796875 39.40625 
Q 19.671875 43.65625 24.015625 45.921875 
Q 28.375 48.1875 33.59375 48.1875 
Q 44.578125 48.1875 50.953125 41.515625 
Q 57.328125 34.859375 57.328125 23.390625 
Q 57.328125 12.15625 50.6875 5.359375 
Q 44.046875 -1.421875 33.015625 -1.421875 
Q 20.359375 -1.421875 13.671875 8.265625 
Q 6.984375 17.96875 6.984375 36.375 
Q 6.984375 53.65625 15.1875 63.9375 
Q 23.390625 74.21875 37.203125 74.21875 
Q 40.921875 74.21875 44.703125 73.484375 
Q 48.484375 72.75 52.59375 71.296875 
z
" id="DejaVuSans-54"/>
      </defs>
      <g transform="translate(1485.185631 923.116094)scale(0.25 -0.25)">
       <use xlink:href="#DejaVuSans-54"/>
      </g>
     </g>
    </g>
    <g id="xtick_7">
     <g id="line2d_7">
      <g>
       <use style="stroke:#000000;stroke-width:0.8;" x="1653.330144" xlink:href="#maed07f9703" y="897.12"/>
      </g>
     </g>
     <g id="text_7">
      <!-- 7 -->
      <defs>
       <path d="M 8.203125 72.90625 
L 55.078125 72.90625 
L 55.078125 68.703125 
L 28.609375 0 
L 18.3125 0 
L 43.21875 64.59375 
L 8.203125 64.59375 
z
" id="DejaVuSans-55"/>
      </defs>
      <g transform="translate(1645.377019 923.116094)scale(0.25 -0.25)">
       <use xlink:href="#DejaVuSans-55"/>
      </g>
     </g>
    </g>
    <g id="xtick_8">
     <g id="line2d_8">
      <g>
       <use style="stroke:#000000;stroke-width:0.8;" x="1813.521531" xlink:href="#maed07f9703" y="897.12"/>
      </g>
     </g>
     <g id="text_8">
      <!-- 8 -->
      <defs>
       <path d="M 31.78125 34.625 
Q 24.75 34.625 20.71875 30.859375 
Q 16.703125 27.09375 16.703125 20.515625 
Q 16.703125 13.921875 20.71875 10.15625 
Q 24.75 6.390625 31.78125 6.390625 
Q 38.8125 6.390625 42.859375 10.171875 
Q 46.921875 13.96875 46.921875 20.515625 
Q 46.921875 27.09375 42.890625 30.859375 
Q 38.875 34.625 31.78125 34.625 
z
M 21.921875 38.8125 
Q 15.578125 40.375 12.03125 44.71875 
Q 8.5 49.078125 8.5 55.328125 
Q 8.5 64.0625 14.71875 69.140625 
Q 20.953125 74.21875 31.78125 74.21875 
Q 42.671875 74.21875 48.875 69.140625 
Q 55.078125 64.0625 55.078125 55.328125 
Q 55.078125 49.078125 51.53125 44.71875 
Q 48 40.375 41.703125 38.8125 
Q 48.828125 37.15625 52.796875 32.3125 
Q 56.78125 27.484375 56.78125 20.515625 
Q 56.78125 9.90625 50.3125 4.234375 
Q 43.84375 -1.421875 31.78125 -1.421875 
Q 19.734375 -1.421875 13.25 4.234375 
Q 6.78125 9.90625 6.78125 20.515625 
Q 6.78125 27.484375 10.78125 32.3125 
Q 14.796875 37.15625 21.921875 38.8125 
z
M 18.3125 54.390625 
Q 18.3125 48.734375 21.84375 45.5625 
Q 25.390625 42.390625 31.78125 42.390625 
Q 38.140625 42.390625 41.71875 45.5625 
Q 45.3125 48.734375 45.3125 54.390625 
Q 45.3125 60.0625 41.71875 63.234375 
Q 38.140625 66.40625 31.78125 66.40625 
Q 25.390625 66.40625 21.84375 63.234375 
Q 18.3125 60.0625 18.3125 54.390625 
z
" id="DejaVuSans-56"/>
      </defs>
      <g transform="translate(1805.568406 923.116094)scale(0.25 -0.25)">
       <use xlink:href="#DejaVuSans-56"/>
      </g>
     </g>
    </g>
    <g id="xtick_9">
     <g id="line2d_9">
      <g>
       <use style="stroke:#000000;stroke-width:0.8;" x="1973.712919" xlink:href="#maed07f9703" y="897.12"/>
      </g>
     </g>
     <g id="text_9">
      <!-- 9 -->
      <defs>
       <path d="M 10.984375 1.515625 
L 10.984375 10.5 
Q 14.703125 8.734375 18.5 7.8125 
Q 22.3125 6.890625 25.984375 6.890625 
Q 35.75 6.890625 40.890625 13.453125 
Q 46.046875 20.015625 46.78125 33.40625 
Q 43.953125 29.203125 39.59375 26.953125 
Q 35.25 24.703125 29.984375 24.703125 
Q 19.046875 24.703125 12.671875 31.3125 
Q 6.296875 37.9375 6.296875 49.421875 
Q 6.296875 60.640625 12.9375 67.421875 
Q 19.578125 74.21875 30.609375 74.21875 
Q 43.265625 74.21875 49.921875 64.515625 
Q 56.59375 54.828125 56.59375 36.375 
Q 56.59375 19.140625 48.40625 8.859375 
Q 40.234375 -1.421875 26.421875 -1.421875 
Q 22.703125 -1.421875 18.890625 -0.6875 
Q 15.09375 0.046875 10.984375 1.515625 
z
M 30.609375 32.421875 
Q 37.25 32.421875 41.125 36.953125 
Q 45.015625 41.5 45.015625 49.421875 
Q 45.015625 57.28125 41.125 61.84375 
Q 37.25 66.40625 30.609375 66.40625 
Q 23.96875 66.40625 20.09375 61.84375 
Q 16.21875 57.28125 16.21875 49.421875 
Q 16.21875 41.5 20.09375 36.953125 
Q 23.96875 32.421875 30.609375 32.421875 
z
" id="DejaVuSans-57"/>
      </defs>
      <g transform="translate(1965.759794 923.116094)scale(0.25 -0.25)">
       <use xlink:href="#DejaVuSans-57"/>
      </g>
     </g>
    </g>
    <g id="xtick_10">
     <g id="line2d_10">
      <g>
       <use style="stroke:#000000;stroke-width:0.8;" x="2133.904306" xlink:href="#maed07f9703" y="897.12"/>
      </g>
     </g>
     <g id="text_10">
      <!-- 10 -->
      <defs>
       <path d="M 31.78125 66.40625 
Q 24.171875 66.40625 20.328125 58.90625 
Q 16.5 51.421875 16.5 36.375 
Q 16.5 21.390625 20.328125 13.890625 
Q 24.171875 6.390625 31.78125 6.390625 
Q 39.453125 6.390625 43.28125 13.890625 
Q 47.125 21.390625 47.125 36.375 
Q 47.125 51.421875 43.28125 58.90625 
Q 39.453125 66.40625 31.78125 66.40625 
z
M 31.78125 74.21875 
Q 44.046875 74.21875 50.515625 64.515625 
Q 56.984375 54.828125 56.984375 36.375 
Q 56.984375 17.96875 50.515625 8.265625 
Q 44.046875 -1.421875 31.78125 -1.421875 
Q 19.53125 -1.421875 13.0625 8.265625 
Q 6.59375 17.96875 6.59375 36.375 
Q 6.59375 54.828125 13.0625 64.515625 
Q 19.53125 74.21875 31.78125 74.21875 
z
" id="DejaVuSans-48"/>
      </defs>
      <g transform="translate(2117.998056 923.116094)scale(0.25 -0.25)">
       <use xlink:href="#DejaVuSans-49"/>
       <use x="63.623047" xlink:href="#DejaVuSans-48"/>
      </g>
     </g>
    </g>
    <g id="xtick_11">
     <g id="line2d_11">
      <g>
       <use style="stroke:#000000;stroke-width:0.8;" x="2294.095694" xlink:href="#maed07f9703" y="897.12"/>
      </g>
     </g>
     <g id="text_11">
      <!-- 11 -->
      <g transform="translate(2278.189444 923.116094)scale(0.25 -0.25)">
       <use xlink:href="#DejaVuSans-49"/>
       <use x="63.623047" xlink:href="#DejaVuSans-49"/>
      </g>
     </g>
    </g>
    <g id="xtick_12">
     <g id="line2d_12">
      <g>
       <use style="stroke:#000000;stroke-width:0.8;" x="2454.287081" xlink:href="#maed07f9703" y="897.12"/>
      </g>
     </g>
     <g id="text_12">
      <!-- 12 -->
      <g transform="translate(2438.380831 923.116094)scale(0.25 -0.25)">
       <use xlink:href="#DejaVuSans-49"/>
       <use x="63.623047" xlink:href="#DejaVuSans-50"/>
      </g>
     </g>
    </g>
    <g id="xtick_13">
     <g id="line2d_13">
      <g>
       <use style="stroke:#000000;stroke-width:0.8;" x="2614.478469" xlink:href="#maed07f9703" y="897.12"/>
      </g>
     </g>
     <g id="text_13">
      <!-- 13 -->
      <g transform="translate(2598.572219 923.116094)scale(0.25 -0.25)">
       <use xlink:href="#DejaVuSans-49"/>
       <use x="63.623047" xlink:href="#DejaVuSans-51"/>
      </g>
     </g>
    </g>
    <g id="xtick_14">
     <g id="line2d_14">
      <g>
       <use style="stroke:#000000;stroke-width:0.8;" x="2774.669856" xlink:href="#maed07f9703" y="897.12"/>
      </g>
     </g>
     <g id="text_14">
      <!-- 20 -->
      <g transform="translate(2758.763606 923.116094)scale(0.25 -0.25)">
       <use xlink:href="#DejaVuSans-50"/>
       <use x="63.623047" xlink:href="#DejaVuSans-48"/>
      </g>
     </g>
    </g>
    <g id="xtick_15">
     <g id="line2d_15">
      <g>
       <use style="stroke:#000000;stroke-width:0.8;" x="2934.861244" xlink:href="#maed07f9703" y="897.12"/>
      </g>
     </g>
     <g id="text_15">
      <!-- 30 -->
      <g transform="translate(2918.954994 923.116094)scale(0.25 -0.25)">
       <use xlink:href="#DejaVuSans-51"/>
       <use x="63.623047" xlink:href="#DejaVuSans-48"/>
      </g>
     </g>
    </g>
    <g id="xtick_16">
     <g id="line2d_16">
      <g>
       <use style="stroke:#000000;stroke-width:0.8;" x="3095.052632" xlink:href="#maed07f9703" y="897.12"/>
      </g>
     </g>
     <g id="text_16">
      <!-- 40 -->
      <g transform="translate(3079.146382 923.116094)scale(0.25 -0.25)">
       <use xlink:href="#DejaVuSans-52"/>
       <use x="63.623047" xlink:href="#DejaVuSans-48"/>
      </g>
     </g>
    </g>
    <g id="xtick_17">
     <g id="line2d_17">
      <g>
       <use style="stroke:#000000;stroke-width:0.8;" x="3255.244019" xlink:href="#maed07f9703" y="897.12"/>
      </g>
     </g>
     <g id="text_17">
      <!-- 50 -->
      <g transform="translate(3239.337769 923.116094)scale(0.25 -0.25)">
       <use xlink:href="#DejaVuSans-53"/>
       <use x="63.623047" xlink:href="#DejaVuSans-48"/>
      </g>
     </g>
    </g>
    <g id="xtick_18">
     <g id="line2d_18">
      <g>
       <use style="stroke:#000000;stroke-width:0.8;" x="3415.435407" xlink:href="#maed07f9703" y="897.12"/>
      </g>
     </g>
     <g id="text_18">
      <!-- 60 -->
      <g transform="translate(3399.529157 923.116094)scale(0.25 -0.25)">
       <use xlink:href="#DejaVuSans-54"/>
       <use x="63.623047" xlink:href="#DejaVuSans-48"/>
      </g>
     </g>
    </g>
    <g id="xtick_19">
     <g id="line2d_19">
      <g>
       <use style="stroke:#000000;stroke-width:0.8;" x="3575.626794" xlink:href="#maed07f9703" y="897.12"/>
      </g>
     </g>
     <g id="text_19">
      <!-- 66 -->
      <g transform="translate(3559.720544 923.116094)scale(0.25 -0.25)">
       <use xlink:href="#DejaVuSans-54"/>
       <use x="63.623047" xlink:href="#DejaVuSans-54"/>
      </g>
     </g>
    </g>
    <g id="xtick_20">
     <g id="line2d_20">
      <g>
       <use style="stroke:#000000;stroke-width:0.8;" x="3735.818182" xlink:href="#maed07f9703" y="897.12"/>
      </g>
     </g>
     <g id="text_20">
      <!-- 192 -->
      <g transform="translate(3711.958807 923.116094)scale(0.25 -0.25)">
       <use xlink:href="#DejaVuSans-49"/>
       <use x="63.623047" xlink:href="#DejaVuSans-57"/>
       <use x="127.246094" xlink:href="#DejaVuSans-50"/>
      </g>
     </g>
    </g>
    <g id="text_21">
     <!-- k -->
     <defs>
      <path d="M 9.078125 75.984375 
L 18.109375 75.984375 
L 18.109375 31.109375 
L 44.921875 54.6875 
L 56.390625 54.6875 
L 27.390625 29.109375 
L 57.625 0 
L 45.90625 0 
L 18.109375 26.703125 
L 18.109375 0 
L 9.078125 0 
z
" id="DejaVuSans-107"/>
     </defs>
     <g transform="translate(2206.761719 951.311406)scale(0.25 -0.25)">
      <use xlink:href="#DejaVuSans-107"/>
     </g>
    </g>
   </g>
   <g id="matplotlib.axis_2">
    <g id="ytick_1">
     <g id="line2d_21">
      <defs>
       <path d="M 0 0 
L -3.5 0 
" id="m6c001fac7a" style="stroke:#000000;stroke-width:0.8;"/>
      </defs>
      <g>
       <use style="stroke:#000000;stroke-width:0.8;" x="540" xlink:href="#m6c001fac7a" y="897.12"/>
      </g>
     </g>
     <g id="text_22">
      <!-- 0.0 -->
      <defs>
       <path d="M 10.6875 12.40625 
L 21 12.40625 
L 21 0 
L 10.6875 0 
z
" id="DejaVuSans-46"/>
      </defs>
      <g transform="translate(493.242188 906.618047)scale(0.25 -0.25)">
       <use xlink:href="#DejaVuSans-48"/>
       <use x="63.623047" xlink:href="#DejaVuSans-46"/>
       <use x="95.410156" xlink:href="#DejaVuSans-48"/>
      </g>
     </g>
    </g>
    <g id="ytick_2">
     <g id="line2d_22">
      <g>
       <use style="stroke:#000000;stroke-width:0.8;" x="540" xlink:href="#m6c001fac7a" y="756"/>
      </g>
     </g>
     <g id="text_23">
      <!-- 0.2 -->
      <g transform="translate(493.242188 765.498047)scale(0.25 -0.25)">
       <use xlink:href="#DejaVuSans-48"/>
       <use x="63.623047" xlink:href="#DejaVuSans-46"/>
       <use x="95.410156" xlink:href="#DejaVuSans-50"/>
      </g>
     </g>
    </g>
    <g id="ytick_3">
     <g id="line2d_23">
      <g>
       <use style="stroke:#000000;stroke-width:0.8;" x="540" xlink:href="#m6c001fac7a" y="614.88"/>
      </g>
     </g>
     <g id="text_24">
      <!-- 0.4 -->
      <g transform="translate(493.242188 624.378047)scale(0.25 -0.25)">
       <use xlink:href="#DejaVuSans-48"/>
       <use x="63.623047" xlink:href="#DejaVuSans-46"/>
       <use x="95.410156" xlink:href="#DejaVuSans-52"/>
      </g>
     </g>
    </g>
    <g id="ytick_4">
     <g id="line2d_24">
      <g>
       <use style="stroke:#000000;stroke-width:0.8;" x="540" xlink:href="#m6c001fac7a" y="473.76"/>
      </g>
     </g>
     <g id="text_25">
      <!-- 0.6 -->
      <g transform="translate(493.242188 483.258047)scale(0.25 -0.25)">
       <use xlink:href="#DejaVuSans-48"/>
       <use x="63.623047" xlink:href="#DejaVuSans-46"/>
       <use x="95.410156" xlink:href="#DejaVuSans-54"/>
      </g>
     </g>
    </g>
    <g id="ytick_5">
     <g id="line2d_25">
      <g>
       <use style="stroke:#000000;stroke-width:0.8;" x="540" xlink:href="#m6c001fac7a" y="332.64"/>
      </g>
     </g>
     <g id="text_26">
      <!-- 0.8 -->
      <g transform="translate(493.242188 342.138047)scale(0.25 -0.25)">
       <use xlink:href="#DejaVuSans-48"/>
       <use x="63.623047" xlink:href="#DejaVuSans-46"/>
       <use x="95.410156" xlink:href="#DejaVuSans-56"/>
      </g>
     </g>
    </g>
    <g id="ytick_6">
     <g id="line2d_26">
      <g>
       <use style="stroke:#000000;stroke-width:0.8;" x="540" xlink:href="#m6c001fac7a" y="191.52"/>
      </g>
     </g>
     <g id="text_27">
      <!-- 1.0 -->
      <g transform="translate(493.242188 201.018047)scale(0.25 -0.25)">
       <use xlink:href="#DejaVuSans-49"/>
       <use x="63.623047" xlink:href="#DejaVuSans-46"/>
       <use x="95.410156" xlink:href="#DejaVuSans-48"/>
      </g>
     </g>
    </g>
    <g id="text_28">
     <!-- Effectiveness Cumulative distance - Missing to Ideal -->
     <defs>
      <path d="M 9.8125 72.90625 
L 55.90625 72.90625 
L 55.90625 64.59375 
L 19.671875 64.59375 
L 19.671875 43.015625 
L 54.390625 43.015625 
L 54.390625 34.71875 
L 19.671875 34.71875 
L 19.671875 8.296875 
L 56.78125 8.296875 
L 56.78125 0 
L 9.8125 0 
z
" id="DejaVuSans-69"/>
      <path d="M 37.109375 75.984375 
L 37.109375 68.5 
L 28.515625 68.5 
Q 23.6875 68.5 21.796875 66.546875 
Q 19.921875 64.59375 19.921875 59.515625 
L 19.921875 54.6875 
L 34.71875 54.6875 
L 34.71875 47.703125 
L 19.921875 47.703125 
L 19.921875 0 
L 10.890625 0 
L 10.890625 47.703125 
L 2.296875 47.703125 
L 2.296875 54.6875 
L 10.890625 54.6875 
L 10.890625 58.5 
Q 10.890625 67.625 15.140625 71.796875 
Q 19.390625 75.984375 28.609375 75.984375 
z
" id="DejaVuSans-102"/>
      <path d="M 56.203125 29.59375 
L 56.203125 25.203125 
L 14.890625 25.203125 
Q 15.484375 15.921875 20.484375 11.0625 
Q 25.484375 6.203125 34.421875 6.203125 
Q 39.59375 6.203125 44.453125 7.46875 
Q 49.3125 8.734375 54.109375 11.28125 
L 54.109375 2.78125 
Q 49.265625 0.734375 44.1875 -0.34375 
Q 39.109375 -1.421875 33.890625 -1.421875 
Q 20.796875 -1.421875 13.15625 6.1875 
Q 5.515625 13.8125 5.515625 26.8125 
Q 5.515625 40.234375 12.765625 48.109375 
Q 20.015625 56 32.328125 56 
Q 43.359375 56 49.78125 48.890625 
Q 56.203125 41.796875 56.203125 29.59375 
z
M 47.21875 32.234375 
Q 47.125 39.59375 43.09375 43.984375 
Q 39.0625 48.390625 32.421875 48.390625 
Q 24.90625 48.390625 20.390625 44.140625 
Q 15.875 39.890625 15.1875 32.171875 
z
" id="DejaVuSans-101"/>
      <path d="M 48.78125 52.59375 
L 48.78125 44.1875 
Q 44.96875 46.296875 41.140625 47.34375 
Q 37.3125 48.390625 33.40625 48.390625 
Q 24.65625 48.390625 19.8125 42.84375 
Q 14.984375 37.3125 14.984375 27.296875 
Q 14.984375 17.28125 19.8125 11.734375 
Q 24.65625 6.203125 33.40625 6.203125 
Q 37.3125 6.203125 41.140625 7.25 
Q 44.96875 8.296875 48.78125 10.40625 
L 48.78125 2.09375 
Q 45.015625 0.34375 40.984375 -0.53125 
Q 36.96875 -1.421875 32.421875 -1.421875 
Q 20.0625 -1.421875 12.78125 6.34375 
Q 5.515625 14.109375 5.515625 27.296875 
Q 5.515625 40.671875 12.859375 48.328125 
Q 20.21875 56 33.015625 56 
Q 37.15625 56 41.109375 55.140625 
Q 45.0625 54.296875 48.78125 52.59375 
z
" id="DejaVuSans-99"/>
      <path d="M 18.3125 70.21875 
L 18.3125 54.6875 
L 36.8125 54.6875 
L 36.8125 47.703125 
L 18.3125 47.703125 
L 18.3125 18.015625 
Q 18.3125 11.328125 20.140625 9.421875 
Q 21.96875 7.515625 27.59375 7.515625 
L 36.8125 7.515625 
L 36.8125 0 
L 27.59375 0 
Q 17.1875 0 13.234375 3.875 
Q 9.28125 7.765625 9.28125 18.015625 
L 9.28125 47.703125 
L 2.6875 47.703125 
L 2.6875 54.6875 
L 9.28125 54.6875 
L 9.28125 70.21875 
z
" id="DejaVuSans-116"/>
      <path d="M 9.421875 54.6875 
L 18.40625 54.6875 
L 18.40625 0 
L 9.421875 0 
z
M 9.421875 75.984375 
L 18.40625 75.984375 
L 18.40625 64.59375 
L 9.421875 64.59375 
z
" id="DejaVuSans-105"/>
      <path d="M 2.984375 54.6875 
L 12.5 54.6875 
L 29.59375 8.796875 
L 46.6875 54.6875 
L 56.203125 54.6875 
L 35.6875 0 
L 23.484375 0 
z
" id="DejaVuSans-118"/>
      <path d="M 54.890625 33.015625 
L 54.890625 0 
L 45.90625 0 
L 45.90625 32.71875 
Q 45.90625 40.484375 42.875 44.328125 
Q 39.84375 48.1875 33.796875 48.1875 
Q 26.515625 48.1875 22.3125 43.546875 
Q 18.109375 38.921875 18.109375 30.90625 
L 18.109375 0 
L 9.078125 0 
L 9.078125 54.6875 
L 18.109375 54.6875 
L 18.109375 46.1875 
Q 21.34375 51.125 25.703125 53.5625 
Q 30.078125 56 35.796875 56 
Q 45.21875 56 50.046875 50.171875 
Q 54.890625 44.34375 54.890625 33.015625 
z
" id="DejaVuSans-110"/>
      <path d="M 44.28125 53.078125 
L 44.28125 44.578125 
Q 40.484375 46.53125 36.375 47.5 
Q 32.28125 48.484375 27.875 48.484375 
Q 21.1875 48.484375 17.84375 46.4375 
Q 14.5 44.390625 14.5 40.28125 
Q 14.5 37.15625 16.890625 35.375 
Q 19.28125 33.59375 26.515625 31.984375 
L 29.59375 31.296875 
Q 39.15625 29.25 43.1875 25.515625 
Q 47.21875 21.78125 47.21875 15.09375 
Q 47.21875 7.46875 41.1875 3.015625 
Q 35.15625 -1.421875 24.609375 -1.421875 
Q 20.21875 -1.421875 15.453125 -0.5625 
Q 10.6875 0.296875 5.421875 2 
L 5.421875 11.28125 
Q 10.40625 8.6875 15.234375 7.390625 
Q 20.0625 6.109375 24.8125 6.109375 
Q 31.15625 6.109375 34.5625 8.28125 
Q 37.984375 10.453125 37.984375 14.40625 
Q 37.984375 18.0625 35.515625 20.015625 
Q 33.0625 21.96875 24.703125 23.78125 
L 21.578125 24.515625 
Q 13.234375 26.265625 9.515625 29.90625 
Q 5.8125 33.546875 5.8125 39.890625 
Q 5.8125 47.609375 11.28125 51.796875 
Q 16.75 56 26.8125 56 
Q 31.78125 56 36.171875 55.265625 
Q 40.578125 54.546875 44.28125 53.078125 
z
" id="DejaVuSans-115"/>
      <path id="DejaVuSans-32"/>
      <path d="M 64.40625 67.28125 
L 64.40625 56.890625 
Q 59.421875 61.53125 53.78125 63.8125 
Q 48.140625 66.109375 41.796875 66.109375 
Q 29.296875 66.109375 22.65625 58.46875 
Q 16.015625 50.828125 16.015625 36.375 
Q 16.015625 21.96875 22.65625 14.328125 
Q 29.296875 6.6875 41.796875 6.6875 
Q 48.140625 6.6875 53.78125 8.984375 
Q 59.421875 11.28125 64.40625 15.921875 
L 64.40625 5.609375 
Q 59.234375 2.09375 53.4375 0.328125 
Q 47.65625 -1.421875 41.21875 -1.421875 
Q 24.65625 -1.421875 15.125 8.703125 
Q 5.609375 18.84375 5.609375 36.375 
Q 5.609375 53.953125 15.125 64.078125 
Q 24.65625 74.21875 41.21875 74.21875 
Q 47.75 74.21875 53.53125 72.484375 
Q 59.328125 70.75 64.40625 67.28125 
z
" id="DejaVuSans-67"/>
      <path d="M 8.5 21.578125 
L 8.5 54.6875 
L 17.484375 54.6875 
L 17.484375 21.921875 
Q 17.484375 14.15625 20.5 10.265625 
Q 23.53125 6.390625 29.59375 6.390625 
Q 36.859375 6.390625 41.078125 11.03125 
Q 45.3125 15.671875 45.3125 23.6875 
L 45.3125 54.6875 
L 54.296875 54.6875 
L 54.296875 0 
L 45.3125 0 
L 45.3125 8.40625 
Q 42.046875 3.421875 37.71875 1 
Q 33.40625 -1.421875 27.6875 -1.421875 
Q 18.265625 -1.421875 13.375 4.4375 
Q 8.5 10.296875 8.5 21.578125 
z
M 31.109375 56 
z
" id="DejaVuSans-117"/>
      <path d="M 52 44.1875 
Q 55.375 50.25 60.0625 53.125 
Q 64.75 56 71.09375 56 
Q 79.640625 56 84.28125 50.015625 
Q 88.921875 44.046875 88.921875 33.015625 
L 88.921875 0 
L 79.890625 0 
L 79.890625 32.71875 
Q 79.890625 40.578125 77.09375 44.375 
Q 74.3125 48.1875 68.609375 48.1875 
Q 61.625 48.1875 57.5625 43.546875 
Q 53.515625 38.921875 53.515625 30.90625 
L 53.515625 0 
L 44.484375 0 
L 44.484375 32.71875 
Q 44.484375 40.625 41.703125 44.40625 
Q 38.921875 48.1875 33.109375 48.1875 
Q 26.21875 48.1875 22.15625 43.53125 
Q 18.109375 38.875 18.109375 30.90625 
L 18.109375 0 
L 9.078125 0 
L 9.078125 54.6875 
L 18.109375 54.6875 
L 18.109375 46.1875 
Q 21.1875 51.21875 25.484375 53.609375 
Q 29.78125 56 35.6875 56 
Q 41.65625 56 45.828125 52.96875 
Q 50 49.953125 52 44.1875 
z
" id="DejaVuSans-109"/>
      <path d="M 9.421875 75.984375 
L 18.40625 75.984375 
L 18.40625 0 
L 9.421875 0 
z
" id="DejaVuSans-108"/>
      <path d="M 34.28125 27.484375 
Q 23.390625 27.484375 19.1875 25 
Q 14.984375 22.515625 14.984375 16.5 
Q 14.984375 11.71875 18.140625 8.90625 
Q 21.296875 6.109375 26.703125 6.109375 
Q 34.1875 6.109375 38.703125 11.40625 
Q 43.21875 16.703125 43.21875 25.484375 
L 43.21875 27.484375 
z
M 52.203125 31.203125 
L 52.203125 0 
L 43.21875 0 
L 43.21875 8.296875 
Q 40.140625 3.328125 35.546875 0.953125 
Q 30.953125 -1.421875 24.3125 -1.421875 
Q 15.921875 -1.421875 10.953125 3.296875 
Q 6 8.015625 6 15.921875 
Q 6 25.140625 12.171875 29.828125 
Q 18.359375 34.515625 30.609375 34.515625 
L 43.21875 34.515625 
L 43.21875 35.40625 
Q 43.21875 41.609375 39.140625 45 
Q 35.0625 48.390625 27.6875 48.390625 
Q 23 48.390625 18.546875 47.265625 
Q 14.109375 46.140625 10.015625 43.890625 
L 10.015625 52.203125 
Q 14.9375 54.109375 19.578125 55.046875 
Q 24.21875 56 28.609375 56 
Q 40.484375 56 46.34375 49.84375 
Q 52.203125 43.703125 52.203125 31.203125 
z
" id="DejaVuSans-97"/>
      <path d="M 45.40625 46.390625 
L 45.40625 75.984375 
L 54.390625 75.984375 
L 54.390625 0 
L 45.40625 0 
L 45.40625 8.203125 
Q 42.578125 3.328125 38.25 0.953125 
Q 33.9375 -1.421875 27.875 -1.421875 
Q 17.96875 -1.421875 11.734375 6.484375 
Q 5.515625 14.40625 5.515625 27.296875 
Q 5.515625 40.1875 11.734375 48.09375 
Q 17.96875 56 27.875 56 
Q 33.9375 56 38.25 53.625 
Q 42.578125 51.265625 45.40625 46.390625 
z
M 14.796875 27.296875 
Q 14.796875 17.390625 18.875 11.75 
Q 22.953125 6.109375 30.078125 6.109375 
Q 37.203125 6.109375 41.296875 11.75 
Q 45.40625 17.390625 45.40625 27.296875 
Q 45.40625 37.203125 41.296875 42.84375 
Q 37.203125 48.484375 30.078125 48.484375 
Q 22.953125 48.484375 18.875 42.84375 
Q 14.796875 37.203125 14.796875 27.296875 
z
" id="DejaVuSans-100"/>
      <path d="M 4.890625 31.390625 
L 31.203125 31.390625 
L 31.203125 23.390625 
L 4.890625 23.390625 
z
" id="DejaVuSans-45"/>
      <path d="M 9.8125 72.90625 
L 24.515625 72.90625 
L 43.109375 23.296875 
L 61.8125 72.90625 
L 76.515625 72.90625 
L 76.515625 0 
L 66.890625 0 
L 66.890625 64.015625 
L 48.09375 14.015625 
L 38.1875 14.015625 
L 19.390625 64.015625 
L 19.390625 0 
L 9.8125 0 
z
" id="DejaVuSans-77"/>
      <path d="M 45.40625 27.984375 
Q 45.40625 37.75 41.375 43.109375 
Q 37.359375 48.484375 30.078125 48.484375 
Q 22.859375 48.484375 18.828125 43.109375 
Q 14.796875 37.75 14.796875 27.984375 
Q 14.796875 18.265625 18.828125 12.890625 
Q 22.859375 7.515625 30.078125 7.515625 
Q 37.359375 7.515625 41.375 12.890625 
Q 45.40625 18.265625 45.40625 27.984375 
z
M 54.390625 6.78125 
Q 54.390625 -7.171875 48.1875 -13.984375 
Q 42 -20.796875 29.203125 -20.796875 
Q 24.46875 -20.796875 20.265625 -20.09375 
Q 16.0625 -19.390625 12.109375 -17.921875 
L 12.109375 -9.1875 
Q 16.0625 -11.328125 19.921875 -12.34375 
Q 23.78125 -13.375 27.78125 -13.375 
Q 36.625 -13.375 41.015625 -8.765625 
Q 45.40625 -4.15625 45.40625 5.171875 
L 45.40625 9.625 
Q 42.625 4.78125 38.28125 2.390625 
Q 33.9375 0 27.875 0 
Q 17.828125 0 11.671875 7.65625 
Q 5.515625 15.328125 5.515625 27.984375 
Q 5.515625 40.671875 11.671875 48.328125 
Q 17.828125 56 27.875 56 
Q 33.9375 56 38.28125 53.609375 
Q 42.625 51.21875 45.40625 46.390625 
L 45.40625 54.6875 
L 54.390625 54.6875 
z
" id="DejaVuSans-103"/>
      <path d="M 30.609375 48.390625 
Q 23.390625 48.390625 19.1875 42.75 
Q 14.984375 37.109375 14.984375 27.296875 
Q 14.984375 17.484375 19.15625 11.84375 
Q 23.34375 6.203125 30.609375 6.203125 
Q 37.796875 6.203125 41.984375 11.859375 
Q 46.1875 17.53125 46.1875 27.296875 
Q 46.1875 37.015625 41.984375 42.703125 
Q 37.796875 48.390625 30.609375 48.390625 
z
M 30.609375 56 
Q 42.328125 56 49.015625 48.375 
Q 55.71875 40.765625 55.71875 27.296875 
Q 55.71875 13.875 49.015625 6.21875 
Q 42.328125 -1.421875 30.609375 -1.421875 
Q 18.84375 -1.421875 12.171875 6.21875 
Q 5.515625 13.875 5.515625 27.296875 
Q 5.515625 40.765625 12.171875 48.375 
Q 18.84375 56 30.609375 56 
z
" id="DejaVuSans-111"/>
      <path d="M 9.8125 72.90625 
L 19.671875 72.90625 
L 19.671875 0 
L 9.8125 0 
z
" id="DejaVuSans-73"/>
     </defs>
     <g transform="translate(484.042969 834.666953)rotate(-90)scale(0.25 -0.25)">
      <use xlink:href="#DejaVuSans-69"/>
      <use x="63.183594" xlink:href="#DejaVuSans-102"/>
      <use x="98.388672" xlink:href="#DejaVuSans-102"/>
      <use x="133.59375" xlink:href="#DejaVuSans-101"/>
      <use x="195.117188" xlink:href="#DejaVuSans-99"/>
      <use x="250.097656" xlink:href="#DejaVuSans-116"/>
      <use x="289.306641" xlink:href="#DejaVuSans-105"/>
      <use x="317.089844" xlink:href="#DejaVuSans-118"/>
      <use x="376.269531" xlink:href="#DejaVuSans-101"/>
      <use x="437.792969" xlink:href="#DejaVuSans-110"/>
      <use x="501.171875" xlink:href="#DejaVuSans-101"/>
      <use x="562.695312" xlink:href="#DejaVuSans-115"/>
      <use x="614.794922" xlink:href="#DejaVuSans-115"/>
      <use x="666.894531" xlink:href="#DejaVuSans-32"/>
      <use x="698.681641" xlink:href="#DejaVuSans-67"/>
      <use x="768.505859" xlink:href="#DejaVuSans-117"/>
      <use x="831.884766" xlink:href="#DejaVuSans-109"/>
      <use x="929.296875" xlink:href="#DejaVuSans-117"/>
      <use x="992.675781" xlink:href="#DejaVuSans-108"/>
      <use x="1020.458984" xlink:href="#DejaVuSans-97"/>
      <use x="1081.738281" xlink:href="#DejaVuSans-116"/>
      <use x="1120.947266" xlink:href="#DejaVuSans-105"/>
      <use x="1148.730469" xlink:href="#DejaVuSans-118"/>
      <use x="1207.910156" xlink:href="#DejaVuSans-101"/>
      <use x="1269.433594" xlink:href="#DejaVuSans-32"/>
      <use x="1301.220703" xlink:href="#DejaVuSans-100"/>
      <use x="1364.697266" xlink:href="#DejaVuSans-105"/>
      <use x="1392.480469" xlink:href="#DejaVuSans-115"/>
      <use x="1444.580078" xlink:href="#DejaVuSans-116"/>
      <use x="1483.789062" xlink:href="#DejaVuSans-97"/>
      <use x="1545.068359" xlink:href="#DejaVuSans-110"/>
      <use x="1608.447266" xlink:href="#DejaVuSans-99"/>
      <use x="1663.427734" xlink:href="#DejaVuSans-101"/>
      <use x="1724.951172" xlink:href="#DejaVuSans-32"/>
      <use x="1756.738281" xlink:href="#DejaVuSans-45"/>
      <use x="1792.822266" xlink:href="#DejaVuSans-32"/>
      <use x="1824.609375" xlink:href="#DejaVuSans-77"/>
      <use x="1910.888672" xlink:href="#DejaVuSans-105"/>
      <use x="1938.671875" xlink:href="#DejaVuSans-115"/>
      <use x="1990.771484" xlink:href="#DejaVuSans-115"/>
      <use x="2042.871094" xlink:href="#DejaVuSans-105"/>
      <use x="2070.654297" xlink:href="#DejaVuSans-110"/>
      <use x="2134.033203" xlink:href="#DejaVuSans-103"/>
      <use x="2197.509766" xlink:href="#DejaVuSans-32"/>
      <use x="2229.296875" xlink:href="#DejaVuSans-116"/>
      <use x="2268.505859" xlink:href="#DejaVuSans-111"/>
      <use x="2329.6875" xlink:href="#DejaVuSans-32"/>
      <use x="2361.474609" xlink:href="#DejaVuSans-73"/>
      <use x="2390.966797" xlink:href="#DejaVuSans-100"/>
      <use x="2454.443359" xlink:href="#DejaVuSans-101"/>
      <use x="2515.966797" xlink:href="#DejaVuSans-97"/>
      <use x="2577.246094" xlink:href="#DejaVuSans-108"/>
     </g>
    </g>
   </g>
   <g id="line2d_27">
    <path clip-path="url(#p85f0609fbe)" d="M 692.181818 203.105911 
L 852.373206 201.910741 
L 1012.564593 199.892725 
L 1172.755981 199.501629 
L 1332.947368 199.197696 
L 1493.138756 198.248173 
L 1653.330144 198.184692 
L 1813.521531 197.51293 
L 1973.712919 197.59553 
L 2133.904306 197.719661 
L 2294.095694 197.361544 
L 2454.287081 197.301353 
L 2614.478469 197.199507 
L 2774.669856 197.693722 
L 2934.861244 198.572752 
L 3095.052632 201.955336 
L 3255.244019 211.409698 
L 3415.435407 213.443542 
L 3575.626794 212.692398 
" style="fill:none;stroke:#539caf;stroke-dasharray:12.8,3.2,2,3.2;stroke-dashoffset:0;stroke-width:2;"/>
    <defs>
     <path d="M -6 6 
L 6 -6 
M -6 -6 
L 6 6 
" id="mbd0b369537" style="stroke:#539caf;"/>
    </defs>
    <g clip-path="url(#p85f0609fbe)">
     <use style="fill:#539caf;stroke:#539caf;" x="692.181818" xlink:href="#mbd0b369537" y="203.105911"/>
     <use style="fill:#539caf;stroke:#539caf;" x="852.373206" xlink:href="#mbd0b369537" y="201.910741"/>
     <use style="fill:#539caf;stroke:#539caf;" x="1012.564593" xlink:href="#mbd0b369537" y="199.892725"/>
     <use style="fill:#539caf;stroke:#539caf;" x="1172.755981" xlink:href="#mbd0b369537" y="199.501629"/>
     <use style="fill:#539caf;stroke:#539caf;" x="1332.947368" xlink:href="#mbd0b369537" y="199.197696"/>
     <use style="fill:#539caf;stroke:#539caf;" x="1493.138756" xlink:href="#mbd0b369537" y="198.248173"/>
     <use style="fill:#539caf;stroke:#539caf;" x="1653.330144" xlink:href="#mbd0b369537" y="198.184692"/>
     <use style="fill:#539caf;stroke:#539caf;" x="1813.521531" xlink:href="#mbd0b369537" y="197.51293"/>
     <use style="fill:#539caf;stroke:#539caf;" x="1973.712919" xlink:href="#mbd0b369537" y="197.59553"/>
     <use style="fill:#539caf;stroke:#539caf;" x="2133.904306" xlink:href="#mbd0b369537" y="197.719661"/>
     <use style="fill:#539caf;stroke:#539caf;" x="2294.095694" xlink:href="#mbd0b369537" y="197.361544"/>
     <use style="fill:#539caf;stroke:#539caf;" x="2454.287081" xlink:href="#mbd0b369537" y="197.301353"/>
     <use style="fill:#539caf;stroke:#539caf;" x="2614.478469" xlink:href="#mbd0b369537" y="197.199507"/>
     <use style="fill:#539caf;stroke:#539caf;" x="2774.669856" xlink:href="#mbd0b369537" y="197.693722"/>
     <use style="fill:#539caf;stroke:#539caf;" x="2934.861244" xlink:href="#mbd0b369537" y="198.572752"/>
     <use style="fill:#539caf;stroke:#539caf;" x="3095.052632" xlink:href="#mbd0b369537" y="201.955336"/>
     <use style="fill:#539caf;stroke:#539caf;" x="3255.244019" xlink:href="#mbd0b369537" y="211.409698"/>
     <use style="fill:#539caf;stroke:#539caf;" x="3415.435407" xlink:href="#mbd0b369537" y="213.443542"/>
     <use style="fill:#539caf;stroke:#539caf;" x="3575.626794" xlink:href="#mbd0b369537" y="212.692398"/>
    </g>
   </g>
   <g id="line2d_28">
    <path clip-path="url(#p85f0609fbe)" d="M 692.181818 200.361325 
L 852.373206 207.650786 
L 1012.564593 207.10784 
L 1172.755981 208.382429 
L 1332.947368 205.111442 
L 1493.138756 197.61035 
L 1653.330144 197.776766 
L 1813.521531 197.52509 
L 1973.712919 197.118949 
L 2133.904306 197.037403 
L 2294.095694 196.984739 
L 2454.287081 196.965022 
L 2614.478469 196.965022 
" style="fill:none;stroke:#b65332;stroke-linecap:square;stroke-width:2;"/>
    <defs>
     <path d="M -6 -0 
L 6 6 
L 6 -6 
z
" id="m96baaa4cbd" style="stroke:#b65332;stroke-linejoin:miter;"/>
    </defs>
    <g clip-path="url(#p85f0609fbe)">
     <use style="fill:#b65332;stroke:#b65332;stroke-linejoin:miter;" x="692.181818" xlink:href="#m96baaa4cbd" y="200.361325"/>
     <use style="fill:#b65332;stroke:#b65332;stroke-linejoin:miter;" x="852.373206" xlink:href="#m96baaa4cbd" y="207.650786"/>
     <use style="fill:#b65332;stroke:#b65332;stroke-linejoin:miter;" x="1012.564593" xlink:href="#m96baaa4cbd" y="207.10784"/>
     <use style="fill:#b65332;stroke:#b65332;stroke-linejoin:miter;" x="1172.755981" xlink:href="#m96baaa4cbd" y="208.382429"/>
     <use style="fill:#b65332;stroke:#b65332;stroke-linejoin:miter;" x="1332.947368" xlink:href="#m96baaa4cbd" y="205.111442"/>
     <use style="fill:#b65332;stroke:#b65332;stroke-linejoin:miter;" x="1493.138756" xlink:href="#m96baaa4cbd" y="197.61035"/>
     <use style="fill:#b65332;stroke:#b65332;stroke-linejoin:miter;" x="1653.330144" xlink:href="#m96baaa4cbd" y="197.776766"/>
     <use style="fill:#b65332;stroke:#b65332;stroke-linejoin:miter;" x="1813.521531" xlink:href="#m96baaa4cbd" y="197.52509"/>
     <use style="fill:#b65332;stroke:#b65332;stroke-linejoin:miter;" x="1973.712919" xlink:href="#m96baaa4cbd" y="197.118949"/>
     <use style="fill:#b65332;stroke:#b65332;stroke-linejoin:miter;" x="2133.904306" xlink:href="#m96baaa4cbd" y="197.037403"/>
     <use style="fill:#b65332;stroke:#b65332;stroke-linejoin:miter;" x="2294.095694" xlink:href="#m96baaa4cbd" y="196.984739"/>
     <use style="fill:#b65332;stroke:#b65332;stroke-linejoin:miter;" x="2454.287081" xlink:href="#m96baaa4cbd" y="196.965022"/>
     <use style="fill:#b65332;stroke:#b65332;stroke-linejoin:miter;" x="2614.478469" xlink:href="#m96baaa4cbd" y="196.965022"/>
    </g>
   </g>
   <g id="line2d_29">
    <path clip-path="url(#p85f0609fbe)" d="M 692.181818 191.52 
L 852.373206 191.52 
L 1012.564593 192.175599 
L 1172.755981 192.238956 
L 1332.947368 192.111266 
L 1493.138756 192.573412 
L 1653.330144 191.914691 
L 1813.521531 191.762778 
L 1973.712919 191.933797 
L 2133.904306 191.838802 
L 2294.095694 191.727007 
L 2454.287081 191.724925 
L 2614.478469 191.724925 
" style="fill:none;stroke:#5be19a;stroke-linecap:square;stroke-width:2;"/>
    <defs>
     <path d="M 0 6 
C 1.591219 6 3.117479 5.367802 4.242641 4.242641 
C 5.367802 3.117479 6 1.591219 6 0 
C 6 -1.591219 5.367802 -3.117479 4.242641 -4.242641 
C 3.117479 -5.367802 1.591219 -6 0 -6 
C -1.591219 -6 -3.117479 -5.367802 -4.242641 -4.242641 
C -5.367802 -3.117479 -6 -1.591219 -6 0 
C -6 1.591219 -5.367802 3.117479 -4.242641 4.242641 
C -3.117479 5.367802 -1.591219 6 0 6 
z
" id="mb938a12f94" style="stroke:#5be19a;"/>
    </defs>
    <g clip-path="url(#p85f0609fbe)">
     <use style="fill:#5be19a;stroke:#5be19a;" x="692.181818" xlink:href="#mb938a12f94" y="191.52"/>
     <use style="fill:#5be19a;stroke:#5be19a;" x="852.373206" xlink:href="#mb938a12f94" y="191.52"/>
     <use style="fill:#5be19a;stroke:#5be19a;" x="1012.564593" xlink:href="#mb938a12f94" y="192.175599"/>
     <use style="fill:#5be19a;stroke:#5be19a;" x="1172.755981" xlink:href="#mb938a12f94" y="192.238956"/>
     <use style="fill:#5be19a;stroke:#5be19a;" x="1332.947368" xlink:href="#mb938a12f94" y="192.111266"/>
     <use style="fill:#5be19a;stroke:#5be19a;" x="1493.138756" xlink:href="#mb938a12f94" y="192.573412"/>
     <use style="fill:#5be19a;stroke:#5be19a;" x="1653.330144" xlink:href="#mb938a12f94" y="191.914691"/>
     <use style="fill:#5be19a;stroke:#5be19a;" x="1813.521531" xlink:href="#mb938a12f94" y="191.762778"/>
     <use style="fill:#5be19a;stroke:#5be19a;" x="1973.712919" xlink:href="#mb938a12f94" y="191.933797"/>
     <use style="fill:#5be19a;stroke:#5be19a;" x="2133.904306" xlink:href="#mb938a12f94" y="191.838802"/>
     <use style="fill:#5be19a;stroke:#5be19a;" x="2294.095694" xlink:href="#mb938a12f94" y="191.727007"/>
     <use style="fill:#5be19a;stroke:#5be19a;" x="2454.287081" xlink:href="#mb938a12f94" y="191.724925"/>
     <use style="fill:#5be19a;stroke:#5be19a;" x="2614.478469" xlink:href="#mb938a12f94" y="191.724925"/>
    </g>
   </g>
   <g id="line2d_30">
    <path clip-path="url(#p85f0609fbe)" d="M 692.181818 218.988987 
L 852.373206 229.605625 
L 1012.564593 231.466157 
L 1172.755981 232.902382 
L 1332.947368 232.855975 
L 1493.138756 233.51394 
L 1653.330144 234.507388 
L 1813.521531 232.527778 
L 1973.712919 230.575901 
L 2133.904306 229.056803 
L 2294.095694 227.879159 
L 2454.287081 226.474271 
L 2614.478469 225.639392 
L 2774.669856 221.074301 
L 2934.861244 216.55898 
L 3095.052632 211.443244 
L 3255.244019 207.462987 
L 3415.435407 205.029683 
L 3575.626794 203.973778 
L 3735.818182 197.570125 
" style="fill:none;stroke:#ece554;stroke-dasharray:7.4,3.2;stroke-dashoffset:0;stroke-width:2;"/>
    <defs>
     <path d="M -6 6 
L 6 6 
L 6 -6 
L -6 -6 
z
" id="mbe5e948156" style="stroke:#ece554;stroke-linejoin:miter;"/>
    </defs>
    <g clip-path="url(#p85f0609fbe)">
     <use style="fill:#ece554;stroke:#ece554;stroke-linejoin:miter;" x="692.181818" xlink:href="#mbe5e948156" y="218.988987"/>
     <use style="fill:#ece554;stroke:#ece554;stroke-linejoin:miter;" x="852.373206" xlink:href="#mbe5e948156" y="229.605625"/>
     <use style="fill:#ece554;stroke:#ece554;stroke-linejoin:miter;" x="1012.564593" xlink:href="#mbe5e948156" y="231.466157"/>
     <use style="fill:#ece554;stroke:#ece554;stroke-linejoin:miter;" x="1172.755981" xlink:href="#mbe5e948156" y="232.902382"/>
     <use style="fill:#ece554;stroke:#ece554;stroke-linejoin:miter;" x="1332.947368" xlink:href="#mbe5e948156" y="232.855975"/>
     <use style="fill:#ece554;stroke:#ece554;stroke-linejoin:miter;" x="1493.138756" xlink:href="#mbe5e948156" y="233.51394"/>
     <use style="fill:#ece554;stroke:#ece554;stroke-linejoin:miter;" x="1653.330144" xlink:href="#mbe5e948156" y="234.507388"/>
     <use style="fill:#ece554;stroke:#ece554;stroke-linejoin:miter;" x="1813.521531" xlink:href="#mbe5e948156" y="232.527778"/>
     <use style="fill:#ece554;stroke:#ece554;stroke-linejoin:miter;" x="1973.712919" xlink:href="#mbe5e948156" y="230.575901"/>
     <use style="fill:#ece554;stroke:#ece554;stroke-linejoin:miter;" x="2133.904306" xlink:href="#mbe5e948156" y="229.056803"/>
     <use style="fill:#ece554;stroke:#ece554;stroke-linejoin:miter;" x="2294.095694" xlink:href="#mbe5e948156" y="227.879159"/>
     <use style="fill:#ece554;stroke:#ece554;stroke-linejoin:miter;" x="2454.287081" xlink:href="#mbe5e948156" y="226.474271"/>
     <use style="fill:#ece554;stroke:#ece554;stroke-linejoin:miter;" x="2614.478469" xlink:href="#mbe5e948156" y="225.639392"/>
     <use style="fill:#ece554;stroke:#ece554;stroke-linejoin:miter;" x="2774.669856" xlink:href="#mbe5e948156" y="221.074301"/>
     <use style="fill:#ece554;stroke:#ece554;stroke-linejoin:miter;" x="2934.861244" xlink:href="#mbe5e948156" y="216.55898"/>
     <use style="fill:#ece554;stroke:#ece554;stroke-linejoin:miter;" x="3095.052632" xlink:href="#mbe5e948156" y="211.443244"/>
     <use style="fill:#ece554;stroke:#ece554;stroke-linejoin:miter;" x="3255.244019" xlink:href="#mbe5e948156" y="207.462987"/>
     <use style="fill:#ece554;stroke:#ece554;stroke-linejoin:miter;" x="3415.435407" xlink:href="#mbe5e948156" y="205.029683"/>
     <use style="fill:#ece554;stroke:#ece554;stroke-linejoin:miter;" x="3575.626794" xlink:href="#mbe5e948156" y="203.973778"/>
     <use style="fill:#ece554;stroke:#ece554;stroke-linejoin:miter;" x="3735.818182" xlink:href="#mbe5e948156" y="197.570125"/>
    </g>
   </g>
   <g id="line2d_31">
    <path clip-path="url(#p85f0609fbe)" d="M 692.181818 209.74656 
L 852.373206 209.766164 
L 1012.564593 206.845061 
L 1172.755981 206.157159 
L 1332.947368 204.568085 
L 1493.138756 203.203483 
L 1653.330144 202.498865 
L 1813.521531 202.260943 
L 1973.712919 201.839489 
L 2133.904306 201.671816 
L 2294.095694 201.230522 
L 2454.287081 200.936524 
L 2614.478469 200.775445 
L 2774.669856 198.861916 
L 2934.861244 197.652174 
L 3095.052632 197.15191 
L 3255.244019 197.220576 
L 3415.435407 200.551695 
L 3575.626794 200.712902 
L 3735.818182 194.566032 
" style="fill:none;stroke:#0d0e0f;stroke-dasharray:12.8,3.2,2,3.2;stroke-dashoffset:0;stroke-width:2;"/>
    <defs>
     <path d="M -6 6 
L 6 -6 
M -6 -6 
L 6 6 
" id="mcf1952026e" style="stroke:#0d0e0f;"/>
    </defs>
    <g clip-path="url(#p85f0609fbe)">
     <use style="fill:#0d0e0f;stroke:#0d0e0f;" x="692.181818" xlink:href="#mcf1952026e" y="209.74656"/>
     <use style="fill:#0d0e0f;stroke:#0d0e0f;" x="852.373206" xlink:href="#mcf1952026e" y="209.766164"/>
     <use style="fill:#0d0e0f;stroke:#0d0e0f;" x="1012.564593" xlink:href="#mcf1952026e" y="206.845061"/>
     <use style="fill:#0d0e0f;stroke:#0d0e0f;" x="1172.755981" xlink:href="#mcf1952026e" y="206.157159"/>
     <use style="fill:#0d0e0f;stroke:#0d0e0f;" x="1332.947368" xlink:href="#mcf1952026e" y="204.568085"/>
     <use style="fill:#0d0e0f;stroke:#0d0e0f;" x="1493.138756" xlink:href="#mcf1952026e" y="203.203483"/>
     <use style="fill:#0d0e0f;stroke:#0d0e0f;" x="1653.330144" xlink:href="#mcf1952026e" y="202.498865"/>
     <use style="fill:#0d0e0f;stroke:#0d0e0f;" x="1813.521531" xlink:href="#mcf1952026e" y="202.260943"/>
     <use style="fill:#0d0e0f;stroke:#0d0e0f;" x="1973.712919" xlink:href="#mcf1952026e" y="201.839489"/>
     <use style="fill:#0d0e0f;stroke:#0d0e0f;" x="2133.904306" xlink:href="#mcf1952026e" y="201.671816"/>
     <use style="fill:#0d0e0f;stroke:#0d0e0f;" x="2294.095694" xlink:href="#mcf1952026e" y="201.230522"/>
     <use style="fill:#0d0e0f;stroke:#0d0e0f;" x="2454.287081" xlink:href="#mcf1952026e" y="200.936524"/>
     <use style="fill:#0d0e0f;stroke:#0d0e0f;" x="2614.478469" xlink:href="#mcf1952026e" y="200.775445"/>
     <use style="fill:#0d0e0f;stroke:#0d0e0f;" x="2774.669856" xlink:href="#mcf1952026e" y="198.861916"/>
     <use style="fill:#0d0e0f;stroke:#0d0e0f;" x="2934.861244" xlink:href="#mcf1952026e" y="197.652174"/>
     <use style="fill:#0d0e0f;stroke:#0d0e0f;" x="3095.052632" xlink:href="#mcf1952026e" y="197.15191"/>
     <use style="fill:#0d0e0f;stroke:#0d0e0f;" x="3255.244019" xlink:href="#mcf1952026e" y="197.220576"/>
     <use style="fill:#0d0e0f;stroke:#0d0e0f;" x="3415.435407" xlink:href="#mcf1952026e" y="200.551695"/>
     <use style="fill:#0d0e0f;stroke:#0d0e0f;" x="3575.626794" xlink:href="#mcf1952026e" y="200.712902"/>
     <use style="fill:#0d0e0f;stroke:#0d0e0f;" x="3735.818182" xlink:href="#mcf1952026e" y="194.566032"/>
    </g>
   </g>
   <g id="patch_3">
    <path d="M 540 897.12 
L 540 120.96 
" style="fill:none;stroke:#000000;stroke-linecap:square;stroke-linejoin:miter;stroke-width:0.8;"/>
   </g>
   <g id="patch_4">
    <path d="M 540 897.12 
L 3888 897.12 
" style="fill:none;stroke:#000000;stroke-linecap:square;stroke-linejoin:miter;stroke-width:0.8;"/>
   </g>
   <g id="text_29">
    <!-- Impact of k on Effectiveness, 95% CI, 10 % missing -->
    <defs>
     <path d="M 18.109375 8.203125 
L 18.109375 -20.796875 
L 9.078125 -20.796875 
L 9.078125 54.6875 
L 18.109375 54.6875 
L 18.109375 46.390625 
Q 20.953125 51.265625 25.265625 53.625 
Q 29.59375 56 35.59375 56 
Q 45.5625 56 51.78125 48.09375 
Q 58.015625 40.1875 58.015625 27.296875 
Q 58.015625 14.40625 51.78125 6.484375 
Q 45.5625 -1.421875 35.59375 -1.421875 
Q 29.59375 -1.421875 25.265625 0.953125 
Q 20.953125 3.328125 18.109375 8.203125 
z
M 48.6875 27.296875 
Q 48.6875 37.203125 44.609375 42.84375 
Q 40.53125 48.484375 33.40625 48.484375 
Q 26.265625 48.484375 22.1875 42.84375 
Q 18.109375 37.203125 18.109375 27.296875 
Q 18.109375 17.390625 22.1875 11.75 
Q 26.265625 6.109375 33.40625 6.109375 
Q 40.53125 6.109375 44.609375 11.75 
Q 48.6875 17.390625 48.6875 27.296875 
z
" id="DejaVuSans-112"/>
     <path d="M 11.71875 12.40625 
L 22.015625 12.40625 
L 22.015625 4 
L 14.015625 -11.625 
L 7.71875 -11.625 
L 11.71875 4 
z
" id="DejaVuSans-44"/>
     <path d="M 72.703125 32.078125 
Q 68.453125 32.078125 66.03125 28.46875 
Q 63.625 24.859375 63.625 18.40625 
Q 63.625 12.0625 66.03125 8.421875 
Q 68.453125 4.78125 72.703125 4.78125 
Q 76.859375 4.78125 79.265625 8.421875 
Q 81.6875 12.0625 81.6875 18.40625 
Q 81.6875 24.8125 79.265625 28.4375 
Q 76.859375 32.078125 72.703125 32.078125 
z
M 72.703125 38.28125 
Q 80.421875 38.28125 84.953125 32.90625 
Q 89.5 27.546875 89.5 18.40625 
Q 89.5 9.28125 84.9375 3.921875 
Q 80.375 -1.421875 72.703125 -1.421875 
Q 64.890625 -1.421875 60.34375 3.921875 
Q 55.8125 9.28125 55.8125 18.40625 
Q 55.8125 27.59375 60.375 32.9375 
Q 64.9375 38.28125 72.703125 38.28125 
z
M 22.3125 68.015625 
Q 18.109375 68.015625 15.6875 64.375 
Q 13.28125 60.75 13.28125 54.390625 
Q 13.28125 47.953125 15.671875 44.328125 
Q 18.0625 40.71875 22.3125 40.71875 
Q 26.5625 40.71875 28.96875 44.328125 
Q 31.390625 47.953125 31.390625 54.390625 
Q 31.390625 60.6875 28.953125 64.34375 
Q 26.515625 68.015625 22.3125 68.015625 
z
M 66.40625 74.21875 
L 74.21875 74.21875 
L 28.609375 -1.421875 
L 20.796875 -1.421875 
z
M 22.3125 74.21875 
Q 30.03125 74.21875 34.609375 68.875 
Q 39.203125 63.53125 39.203125 54.390625 
Q 39.203125 45.171875 34.640625 39.84375 
Q 30.078125 34.515625 22.3125 34.515625 
Q 14.546875 34.515625 10.03125 39.859375 
Q 5.515625 45.21875 5.515625 54.390625 
Q 5.515625 63.484375 10.046875 68.84375 
Q 14.59375 74.21875 22.3125 74.21875 
z
" id="DejaVuSans-37"/>
    </defs>
    <g transform="translate(1828.635937 114.720938)scale(0.3 -0.3)">
     <use xlink:href="#DejaVuSans-73"/>
     <use x="29.492188" xlink:href="#DejaVuSans-109"/>
     <use x="126.904297" xlink:href="#DejaVuSans-112"/>
     <use x="190.380859" xlink:href="#DejaVuSans-97"/>
     <use x="251.660156" xlink:href="#DejaVuSans-99"/>
     <use x="306.640625" xlink:href="#DejaVuSans-116"/>
     <use x="345.849609" xlink:href="#DejaVuSans-32"/>
     <use x="377.636719" xlink:href="#DejaVuSans-111"/>
     <use x="438.818359" xlink:href="#DejaVuSans-102"/>
     <use x="474.023438" xlink:href="#DejaVuSans-32"/>
     <use x="505.810547" xlink:href="#DejaVuSans-107"/>
     <use x="563.720703" xlink:href="#DejaVuSans-32"/>
     <use x="595.507812" xlink:href="#DejaVuSans-111"/>
     <use x="656.689453" xlink:href="#DejaVuSans-110"/>
     <use x="720.068359" xlink:href="#DejaVuSans-32"/>
     <use x="751.855469" xlink:href="#DejaVuSans-69"/>
     <use x="815.039062" xlink:href="#DejaVuSans-102"/>
     <use x="850.244141" xlink:href="#DejaVuSans-102"/>
     <use x="885.449219" xlink:href="#DejaVuSans-101"/>
     <use x="946.972656" xlink:href="#DejaVuSans-99"/>
     <use x="1001.953125" xlink:href="#DejaVuSans-116"/>
     <use x="1041.162109" xlink:href="#DejaVuSans-105"/>
     <use x="1068.945312" xlink:href="#DejaVuSans-118"/>
     <use x="1128.125" xlink:href="#DejaVuSans-101"/>
     <use x="1189.648438" xlink:href="#DejaVuSans-110"/>
     <use x="1253.027344" xlink:href="#DejaVuSans-101"/>
     <use x="1314.550781" xlink:href="#DejaVuSans-115"/>
     <use x="1366.650391" xlink:href="#DejaVuSans-115"/>
     <use x="1418.75" xlink:href="#DejaVuSans-44"/>
     <use x="1450.537109" xlink:href="#DejaVuSans-32"/>
     <use x="1482.324219" xlink:href="#DejaVuSans-57"/>
     <use x="1545.947266" xlink:href="#DejaVuSans-53"/>
     <use x="1609.570312" xlink:href="#DejaVuSans-37"/>
     <use x="1704.589844" xlink:href="#DejaVuSans-32"/>
     <use x="1736.376953" xlink:href="#DejaVuSans-67"/>
     <use x="1806.201172" xlink:href="#DejaVuSans-73"/>
     <use x="1835.693359" xlink:href="#DejaVuSans-44"/>
     <use x="1867.480469" xlink:href="#DejaVuSans-32"/>
     <use x="1899.267578" xlink:href="#DejaVuSans-49"/>
     <use x="1962.890625" xlink:href="#DejaVuSans-48"/>
     <use x="2026.513672" xlink:href="#DejaVuSans-32"/>
     <use x="2058.300781" xlink:href="#DejaVuSans-37"/>
     <use x="2153.320312" xlink:href="#DejaVuSans-32"/>
     <use x="2185.107422" xlink:href="#DejaVuSans-109"/>
     <use x="2282.519531" xlink:href="#DejaVuSans-105"/>
     <use x="2310.302734" xlink:href="#DejaVuSans-115"/>
     <use x="2362.402344" xlink:href="#DejaVuSans-115"/>
     <use x="2414.501953" xlink:href="#DejaVuSans-105"/>
     <use x="2442.285156" xlink:href="#DejaVuSans-110"/>
     <use x="2505.664062" xlink:href="#DejaVuSans-103"/>
    </g>
   </g>
   <g id="legend_1">
    <g id="patch_5">
     <path d="M 557.5 884.62 
L 917.148438 884.62 
Q 922.148438 884.62 922.148438 879.62 
L 922.148438 698.643438 
Q 922.148438 693.643438 917.148438 693.643438 
L 557.5 693.643438 
Q 552.5 693.643438 552.5 698.643438 
L 552.5 879.62 
Q 552.5 884.62 557.5 884.62 
z
" style="fill:#ffffff;opacity:0.8;stroke:#cccccc;stroke-linejoin:miter;"/>
    </g>
    <g id="line2d_32">
     <path d="M 562.5 713.889531 
L 612.5 713.889531 
" style="fill:none;stroke:#539caf;stroke-dasharray:12.8,3.2,2,3.2;stroke-dashoffset:0;stroke-width:2;"/>
    </g>
    <g id="line2d_33">
     <g>
      <use style="fill:#539caf;stroke:#539caf;" x="587.5" xlink:href="#mbd0b369537" y="713.889531"/>
     </g>
    </g>
    <g id="text_30">
     <!-- + Correlation -->
     <defs>
      <path d="M 46 62.703125 
L 46 35.5 
L 73.1875 35.5 
L 73.1875 27.203125 
L 46 27.203125 
L 46 0 
L 37.796875 0 
L 37.796875 27.203125 
L 10.59375 27.203125 
L 10.59375 35.5 
L 37.796875 35.5 
L 37.796875 62.703125 
z
" id="DejaVuSans-43"/>
      <path d="M 41.109375 46.296875 
Q 39.59375 47.171875 37.8125 47.578125 
Q 36.03125 48 33.890625 48 
Q 26.265625 48 22.1875 43.046875 
Q 18.109375 38.09375 18.109375 28.8125 
L 18.109375 0 
L 9.078125 0 
L 9.078125 54.6875 
L 18.109375 54.6875 
L 18.109375 46.1875 
Q 20.953125 51.171875 25.484375 53.578125 
Q 30.03125 56 36.53125 56 
Q 37.453125 56 38.578125 55.875 
Q 39.703125 55.765625 41.0625 55.515625 
z
" id="DejaVuSans-114"/>
     </defs>
     <g transform="translate(632.5 722.639531)scale(0.25 -0.25)">
      <use xlink:href="#DejaVuSans-43"/>
      <use x="83.789062" xlink:href="#DejaVuSans-32"/>
      <use x="115.576172" xlink:href="#DejaVuSans-67"/>
      <use x="185.400391" xlink:href="#DejaVuSans-111"/>
      <use x="246.582031" xlink:href="#DejaVuSans-114"/>
      <use x="287.679688" xlink:href="#DejaVuSans-114"/>
      <use x="328.761719" xlink:href="#DejaVuSans-101"/>
      <use x="390.285156" xlink:href="#DejaVuSans-108"/>
      <use x="418.068359" xlink:href="#DejaVuSans-97"/>
      <use x="479.347656" xlink:href="#DejaVuSans-116"/>
      <use x="518.556641" xlink:href="#DejaVuSans-105"/>
      <use x="546.339844" xlink:href="#DejaVuSans-111"/>
      <use x="607.521484" xlink:href="#DejaVuSans-110"/>
     </g>
    </g>
    <g id="line2d_34">
     <path d="M 562.5 750.584844 
L 612.5 750.584844 
" style="fill:none;stroke:#b65332;stroke-linecap:square;stroke-width:2;"/>
    </g>
    <g id="line2d_35">
     <g>
      <use style="fill:#b65332;stroke:#b65332;stroke-linejoin:miter;" x="587.5" xlink:href="#m96baaa4cbd" y="750.584844"/>
     </g>
    </g>
    <g id="text_31">
     <!-- + Kurtosis -->
     <defs>
      <path d="M 9.8125 72.90625 
L 19.671875 72.90625 
L 19.671875 42.09375 
L 52.390625 72.90625 
L 65.09375 72.90625 
L 28.90625 38.921875 
L 67.671875 0 
L 54.6875 0 
L 19.671875 35.109375 
L 19.671875 0 
L 9.8125 0 
z
" id="DejaVuSans-75"/>
     </defs>
     <g transform="translate(632.5 759.334844)scale(0.25 -0.25)">
      <use xlink:href="#DejaVuSans-43"/>
      <use x="83.789062" xlink:href="#DejaVuSans-32"/>
      <use x="115.576172" xlink:href="#DejaVuSans-75"/>
      <use x="181.074219" xlink:href="#DejaVuSans-117"/>
      <use x="244.453125" xlink:href="#DejaVuSans-114"/>
      <use x="285.566406" xlink:href="#DejaVuSans-116"/>
      <use x="324.775391" xlink:href="#DejaVuSans-111"/>
      <use x="385.957031" xlink:href="#DejaVuSans-115"/>
      <use x="438.056641" xlink:href="#DejaVuSans-105"/>
      <use x="465.839844" xlink:href="#DejaVuSans-115"/>
     </g>
    </g>
    <g id="line2d_36">
     <path d="M 562.5 787.280156 
L 612.5 787.280156 
" style="fill:none;stroke:#5be19a;stroke-linecap:square;stroke-width:2;"/>
    </g>
    <g id="line2d_37">
     <g>
      <use style="fill:#5be19a;stroke:#5be19a;" x="587.5" xlink:href="#mb938a12f94" y="787.280156"/>
     </g>
    </g>
    <g id="text_32">
     <!-- + Skewness -->
     <defs>
      <path d="M 53.515625 70.515625 
L 53.515625 60.890625 
Q 47.90625 63.578125 42.921875 64.890625 
Q 37.9375 66.21875 33.296875 66.21875 
Q 25.25 66.21875 20.875 63.09375 
Q 16.5 59.96875 16.5 54.203125 
Q 16.5 49.359375 19.40625 46.890625 
Q 22.3125 44.4375 30.421875 42.921875 
L 36.375 41.703125 
Q 47.40625 39.59375 52.65625 34.296875 
Q 57.90625 29 57.90625 20.125 
Q 57.90625 9.515625 50.796875 4.046875 
Q 43.703125 -1.421875 29.984375 -1.421875 
Q 24.8125 -1.421875 18.96875 -0.25 
Q 13.140625 0.921875 6.890625 3.21875 
L 6.890625 13.375 
Q 12.890625 10.015625 18.65625 8.296875 
Q 24.421875 6.59375 29.984375 6.59375 
Q 38.421875 6.59375 43.015625 9.90625 
Q 47.609375 13.234375 47.609375 19.390625 
Q 47.609375 24.75 44.3125 27.78125 
Q 41.015625 30.8125 33.5 32.328125 
L 27.484375 33.5 
Q 16.453125 35.6875 11.515625 40.375 
Q 6.59375 45.0625 6.59375 53.421875 
Q 6.59375 63.09375 13.40625 68.65625 
Q 20.21875 74.21875 32.171875 74.21875 
Q 37.3125 74.21875 42.625 73.28125 
Q 47.953125 72.359375 53.515625 70.515625 
z
" id="DejaVuSans-83"/>
      <path d="M 4.203125 54.6875 
L 13.1875 54.6875 
L 24.421875 12.015625 
L 35.59375 54.6875 
L 46.1875 54.6875 
L 57.421875 12.015625 
L 68.609375 54.6875 
L 77.59375 54.6875 
L 63.28125 0 
L 52.6875 0 
L 40.921875 44.828125 
L 29.109375 0 
L 18.5 0 
z
" id="DejaVuSans-119"/>
     </defs>
     <g transform="translate(632.5 796.030156)scale(0.25 -0.25)">
      <use xlink:href="#DejaVuSans-43"/>
      <use x="83.789062" xlink:href="#DejaVuSans-32"/>
      <use x="115.576172" xlink:href="#DejaVuSans-83"/>
      <use x="179.052734" xlink:href="#DejaVuSans-107"/>
      <use x="236.916016" xlink:href="#DejaVuSans-101"/>
      <use x="298.439453" xlink:href="#DejaVuSans-119"/>
      <use x="380.226562" xlink:href="#DejaVuSans-110"/>
      <use x="443.605469" xlink:href="#DejaVuSans-101"/>
      <use x="505.128906" xlink:href="#DejaVuSans-115"/>
      <use x="557.228516" xlink:href="#DejaVuSans-115"/>
     </g>
    </g>
    <g id="line2d_38">
     <path d="M 562.5 823.975469 
L 612.5 823.975469 
" style="fill:none;stroke:#ece554;stroke-dasharray:7.4,3.2;stroke-dashoffset:0;stroke-width:2;"/>
    </g>
    <g id="line2d_39">
     <g>
      <use style="fill:#ece554;stroke:#ece554;stroke-linejoin:miter;" x="587.5" xlink:href="#mbe5e948156" y="823.975469"/>
     </g>
    </g>
    <g id="text_33">
     <!-- Similarity to reference -->
     <defs>
      <path d="M 32.171875 -5.078125 
Q 28.375 -14.84375 24.75 -17.8125 
Q 21.140625 -20.796875 15.09375 -20.796875 
L 7.90625 -20.796875 
L 7.90625 -13.28125 
L 13.1875 -13.28125 
Q 16.890625 -13.28125 18.9375 -11.515625 
Q 21 -9.765625 23.484375 -3.21875 
L 25.09375 0.875 
L 2.984375 54.6875 
L 12.5 54.6875 
L 29.59375 11.921875 
L 46.6875 54.6875 
L 56.203125 54.6875 
z
" id="DejaVuSans-121"/>
     </defs>
     <g transform="translate(632.5 832.725469)scale(0.25 -0.25)">
      <use xlink:href="#DejaVuSans-83"/>
      <use x="63.476562" xlink:href="#DejaVuSans-105"/>
      <use x="91.259766" xlink:href="#DejaVuSans-109"/>
      <use x="188.671875" xlink:href="#DejaVuSans-105"/>
      <use x="216.455078" xlink:href="#DejaVuSans-108"/>
      <use x="244.238281" xlink:href="#DejaVuSans-97"/>
      <use x="305.517578" xlink:href="#DejaVuSans-114"/>
      <use x="346.630859" xlink:href="#DejaVuSans-105"/>
      <use x="374.414062" xlink:href="#DejaVuSans-116"/>
      <use x="413.623047" xlink:href="#DejaVuSans-121"/>
      <use x="472.802734" xlink:href="#DejaVuSans-32"/>
      <use x="504.589844" xlink:href="#DejaVuSans-116"/>
      <use x="543.798828" xlink:href="#DejaVuSans-111"/>
      <use x="604.980469" xlink:href="#DejaVuSans-32"/>
      <use x="636.767578" xlink:href="#DejaVuSans-114"/>
      <use x="677.849609" xlink:href="#DejaVuSans-101"/>
      <use x="739.373047" xlink:href="#DejaVuSans-102"/>
      <use x="774.578125" xlink:href="#DejaVuSans-101"/>
      <use x="836.101562" xlink:href="#DejaVuSans-114"/>
      <use x="877.183594" xlink:href="#DejaVuSans-101"/>
      <use x="938.707031" xlink:href="#DejaVuSans-110"/>
      <use x="1002.085938" xlink:href="#DejaVuSans-99"/>
      <use x="1057.066406" xlink:href="#DejaVuSans-101"/>
     </g>
    </g>
    <g id="line2d_40">
     <path d="M 562.5 860.670781 
L 612.5 860.670781 
" style="fill:none;stroke:#0d0e0f;stroke-dasharray:12.8,3.2,2,3.2;stroke-dashoffset:0;stroke-width:2;"/>
    </g>
    <g id="line2d_41">
     <g>
      <use style="fill:#0d0e0f;stroke:#0d0e0f;" x="587.5" xlink:href="#mcf1952026e" y="860.670781"/>
     </g>
    </g>
    <g id="text_34">
     <!-- Deviation/outstanding -->
     <defs>
      <path d="M 19.671875 64.796875 
L 19.671875 8.109375 
L 31.59375 8.109375 
Q 46.6875 8.109375 53.6875 14.9375 
Q 60.6875 21.78125 60.6875 36.53125 
Q 60.6875 51.171875 53.6875 57.984375 
Q 46.6875 64.796875 31.59375 64.796875 
z
M 9.8125 72.90625 
L 30.078125 72.90625 
Q 51.265625 72.90625 61.171875 64.09375 
Q 71.09375 55.28125 71.09375 36.53125 
Q 71.09375 17.671875 61.125 8.828125 
Q 51.171875 0 30.078125 0 
L 9.8125 0 
z
" id="DejaVuSans-68"/>
      <path d="M 25.390625 72.90625 
L 33.6875 72.90625 
L 8.296875 -9.28125 
L 0 -9.28125 
z
" id="DejaVuSans-47"/>
     </defs>
     <g transform="translate(632.5 869.420781)scale(0.25 -0.25)">
      <use xlink:href="#DejaVuSans-68"/>
      <use x="77.001953" xlink:href="#DejaVuSans-101"/>
      <use x="138.525391" xlink:href="#DejaVuSans-118"/>
      <use x="197.705078" xlink:href="#DejaVuSans-105"/>
      <use x="225.488281" xlink:href="#DejaVuSans-97"/>
      <use x="286.767578" xlink:href="#DejaVuSans-116"/>
      <use x="325.976562" xlink:href="#DejaVuSans-105"/>
      <use x="353.759766" xlink:href="#DejaVuSans-111"/>
      <use x="414.941406" xlink:href="#DejaVuSans-110"/>
      <use x="478.320312" xlink:href="#DejaVuSans-47"/>
      <use x="512.011719" xlink:href="#DejaVuSans-111"/>
      <use x="573.193359" xlink:href="#DejaVuSans-117"/>
      <use x="636.572266" xlink:href="#DejaVuSans-116"/>
      <use x="675.78125" xlink:href="#DejaVuSans-115"/>
      <use x="727.880859" xlink:href="#DejaVuSans-116"/>
      <use x="767.089844" xlink:href="#DejaVuSans-97"/>
      <use x="828.369141" xlink:href="#DejaVuSans-110"/>
      <use x="891.748047" xlink:href="#DejaVuSans-100"/>
      <use x="955.224609" xlink:href="#DejaVuSans-105"/>
      <use x="983.007812" xlink:href="#DejaVuSans-110"/>
      <use x="1046.386719" xlink:href="#DejaVuSans-103"/>
     </g>
    </g>
   </g>
  </g>
 </g>
 <defs>
  <clipPath id="p85f0609fbe">
   <rect height="776.16" width="3348" x="540" y="120.96"/>
  </clipPath>
 </defs>
</svg>
